<svg width="100%" height="100%" xmlns="http://www.w3.org/2000/svg" xmlns:xlink="http://www.w3.org/1999/xlink" viewBox="0.00 0.00 789.81 678.00">
<g id="graph0" class="graph" transform="translate(4,674) scale(1)" style="transform: translate(4px, 99%) scale(0.98);">
<title>G</title>
<polygon fill="#ffffff" stroke="transparent" points="-4,4 -4,-674 785.8107,-674 785.8107,4 -4,4"/>
<g id="clust1" class="cluster">
<title>clusterSwapRouter</title>
<polygon fill="#d3d3d3" stroke="#d3d3d3" points="8,-178 8,-525 773.8107,-525 773.8107,-178 8,-178"/>
<text text-anchor="middle" x="390.9054" y="-508.4" font-family="Times,serif" font-size="14.00" fill="#000000">SwapRouter</text>
</g>
<g id="clust2" class="cluster">
<title>clusterPoolAddress</title>
<polygon fill="none" stroke="#d3d3d3" points="603.793,-39 603.793,-170 771.6572,-170 771.6572,-39 603.793,-39"/>
<text text-anchor="middle" x="687.7251" y="-153.4" font-family="Times,serif" font-size="14.00" fill="#000000">PoolAddress</text>
</g>
<g id="clust3" class="cluster">
<title>clusterCallbackValidation</title>
<polygon fill="none" stroke="#d3d3d3" points="285.4392,-93 285.4392,-170 438.2753,-170 438.2753,-93 285.4392,-93"/>
<text text-anchor="middle" x="361.8573" y="-153.4" font-family="Times,serif" font-size="14.00" fill="#000000">CallbackValidation</text>
</g>
<g id="clust4" class="cluster">
<title>clusteramountIn</title>
<polygon fill="none" stroke="#d3d3d3" points="478.1175,-93 478.1175,-170 581.6395,-170 581.6395,-93 478.1175,-93"/>
<text text-anchor="middle" x="529.8785" y="-153.4" font-family="Times,serif" font-size="14.00" fill="#000000">amountIn</text>
</g>
<g id="clust5" class="cluster">
<title>clusteramountOut</title>
<polygon fill="none" stroke="#d3d3d3" points="478.1175,-8 478.1175,-85 581.6395,-85 581.6395,-8 478.1175,-8"/>
<text text-anchor="middle" x="529.8785" y="-68.4" font-family="Times,serif" font-size="14.00" fill="#000000">amountOut</text>
</g>
<g id="clust6" class="cluster">
<title>cluster_01</title>
<polygon fill="none" stroke="#000000" points="53.7985,-533 53.7985,-662 396.8573,-662 396.8573,-533 53.7985,-533"/>
<text text-anchor="middle" x="225.3279" y="-645.4" font-family="Times,serif" font-size="14.00" fill="#000000">Legend</text>
</g>
<!-- SwapRouter.&lt;Constructor&gt; -->
<g id="node1" class="node">
<title>SwapRouter.&lt;Constructor&gt;</title>
<ellipse fill="none" stroke="#00ff00" cx="126.7985" cy="-474" rx="67.5419" ry="18"/>
<text text-anchor="middle" x="126.7985" y="-469.8" font-family="Times,serif" font-size="14.00" fill="#000000">&lt;Constructor&gt;</text>
</g>
<!-- SwapRouter.getPool -->
<g id="node2" class="node">
<title>SwapRouter.getPool</title>
<ellipse fill="none" stroke="#ff0000" cx="529.8785" cy="-231" rx="40.5886" ry="18"/>
<text text-anchor="middle" x="529.8785" y="-226.8" font-family="Times,serif" font-size="14.00" fill="#000000">getPool</text>
</g>
<!-- SwapRouter.IUniswapV3Pool -->
<g id="node10" class="node">
<title>SwapRouter.IUniswapV3Pool</title>
<ellipse fill="none" stroke="#000000" cx="687.7251" cy="-231" rx="78.1714" ry="18"/>
<text text-anchor="middle" x="687.7251" y="-226.8" font-family="Times,serif" font-size="14.00" fill="#000000">IUniswapV3Pool</text>
</g>
<!-- SwapRouter.getPool&#45;&gt;SwapRouter.IUniswapV3Pool -->
<g id="edge1" class="edge">
<title>SwapRouter.getPool-&gt;SwapRouter.IUniswapV3Pool</title>
<path fill="none" stroke="#00ff00" d="M570.5279,-231C579.5026,-231 589.3485,-231 599.4008,-231"/>
<polygon fill="#00ff00" stroke="#00ff00" points="599.4973,-234.5001 609.4972,-231 599.4972,-227.5001 599.4973,-234.5001"/>
</g>
<!-- PoolAddress.computeAddress -->
<g id="node13" class="node">
<title>PoolAddress.computeAddress</title>
<ellipse fill="none" stroke="#000000" cx="687.7251" cy="-119" rx="75.8643" ry="18"/>
<text text-anchor="middle" x="687.7251" y="-114.8" font-family="Times,serif" font-size="14.00" fill="#000000">computeAddress</text>
</g>
<!-- SwapRouter.getPool&#45;&gt;PoolAddress.computeAddress -->
<g id="edge2" class="edge">
<title>SwapRouter.getPool-&gt;PoolAddress.computeAddress</title>
<path fill="none" stroke="#ffa500" d="M549.6431,-215.0944C564.3535,-203.4204 585.0448,-187.342 603.793,-174 619.3366,-162.9385 636.9404,-151.2764 651.9975,-141.5515"/>
<polygon fill="#ffa500" stroke="#ffa500" points="654.0113,-144.4179 660.5338,-136.0688 650.2284,-138.5281 654.0113,-144.4179"/>
</g>
<!-- PoolAddress.getPoolKey -->
<g id="node14" class="node">
<title>PoolAddress.getPoolKey</title>
<ellipse fill="none" stroke="#000000" cx="687.7251" cy="-65" rx="56.7619" ry="18"/>
<text text-anchor="middle" x="687.7251" y="-60.8" font-family="Times,serif" font-size="14.00" fill="#000000">getPoolKey</text>
</g>
<!-- SwapRouter.getPool&#45;&gt;PoolAddress.getPoolKey -->
<g id="edge3" class="edge">
<title>SwapRouter.getPool-&gt;PoolAddress.getPoolKey</title>
<path fill="none" stroke="#ffa500" d="M548.3343,-214.9709C559.4696,-204.3729 573.1073,-189.5971 581.6395,-174 599.757,-140.8806 577.7386,-119.3187 603.793,-92 610.2322,-85.2483 618.3633,-80.181 627.0155,-76.3789"/>
<polygon fill="#ffa500" stroke="#ffa500" points="628.4641,-79.5722 636.5533,-72.7299 625.9628,-73.0343 628.4641,-79.5722"/>
</g>
<!-- SwapRouter.uniswapV3SwapCallback -->
<g id="node3" class="node">
<title>SwapRouter.uniswapV3SwapCallback</title>
<ellipse fill="none" stroke="#0000ff" cx="126.7985" cy="-312" rx="110.5974" ry="18"/>
<text text-anchor="middle" x="126.7985" y="-307.8" font-family="Times,serif" font-size="14.00" fill="#000000">uniswapV3SwapCallback</text>
</g>
<!-- SwapRouter.exactOutputInternal -->
<g id="node7" class="node">
<title>SwapRouter.exactOutputInternal</title>
<ellipse fill="none" stroke="#000000" cx="361.8573" cy="-258" rx="88.021" ry="18"/>
<text text-anchor="middle" x="361.8573" y="-253.8" font-family="Times,serif" font-size="14.00" fill="#000000">exactOutputInternal</text>
</g>
<!-- SwapRouter.uniswapV3SwapCallback&#45;&gt;SwapRouter.exactOutputInternal -->
<g id="edge6" class="edge">
<title>SwapRouter.uniswapV3SwapCallback-&gt;SwapRouter.exactOutputInternal</title>
<path fill="none" stroke="#00ff00" d="M191.0294,-297.2443C222.6885,-289.9712 260.8938,-281.1943 293.1384,-273.7868"/>
<polygon fill="#00ff00" stroke="#00ff00" points="293.9777,-277.1852 302.9402,-271.535 292.4104,-270.3629 293.9777,-277.1852"/>
</g>
<!-- SwapRouter.pay -->
<g id="node11" class="node">
<title>SwapRouter.pay</title>
<ellipse fill="none" stroke="#000000" cx="361.8573" cy="-312" rx="27" ry="18"/>
<text text-anchor="middle" x="361.8573" y="-307.8" font-family="Times,serif" font-size="14.00" fill="#000000">pay</text>
</g>
<!-- SwapRouter.uniswapV3SwapCallback&#45;&gt;SwapRouter.pay -->
<g id="edge5" class="edge">
<title>SwapRouter.uniswapV3SwapCallback-&gt;SwapRouter.pay</title>
<path fill="none" stroke="#00ff00" d="M229.8987,-305.2954C263.9416,-305.0801 299.6242,-305.6302 325.2881,-306.9456"/>
<polygon fill="#00ff00" stroke="#00ff00" points="325.1069,-310.4409 335.2948,-307.5329 325.5171,-303.4529 325.1069,-310.4409"/>
</g>
<!-- SwapRouter.uniswapV3SwapCallback&#45;&gt;SwapRouter.pay -->
<g id="edge7" class="edge">
<title>SwapRouter.uniswapV3SwapCallback-&gt;SwapRouter.pay</title>
<path fill="none" stroke="#00ff00" d="M229.8987,-318.7046C263.9416,-318.9199 299.6242,-318.3698 325.2881,-317.0544"/>
<polygon fill="#00ff00" stroke="#00ff00" points="325.5171,-320.5471 335.2948,-316.4671 325.1069,-313.5591 325.5171,-320.5471"/>
</g>
<!-- CallbackValidation.verifyCallback -->
<g id="node15" class="node">
<title>CallbackValidation.verifyCallback</title>
<ellipse fill="none" stroke="#000000" cx="361.8573" cy="-119" rx="68.3362" ry="18"/>
<text text-anchor="middle" x="361.8573" y="-114.8" font-family="Times,serif" font-size="14.00" fill="#000000">verifyCallback</text>
</g>
<!-- SwapRouter.uniswapV3SwapCallback&#45;&gt;CallbackValidation.verifyCallback -->
<g id="edge4" class="edge">
<title>SwapRouter.uniswapV3SwapCallback-&gt;CallbackValidation.verifyCallback</title>
<path fill="none" stroke="#ffa500" d="M213.0253,-300.5333C222.0381,-296.6616 230.4861,-291.5994 237.5971,-285 275.6118,-249.7202 241.6528,-214.8576 273.5971,-174 284.8452,-159.6133 300.9834,-148.0091 316.3914,-139.2345"/>
<polygon fill="#ffa500" stroke="#ffa500" points="318.2063,-142.2321 325.3365,-134.3955 314.8757,-136.0752 318.2063,-142.2321"/>
</g>
<!-- SwapRouter.exactInputInternal -->
<g id="node4" class="node">
<title>SwapRouter.exactInputInternal</title>
<ellipse fill="none" stroke="#ff0000" cx="361.8573" cy="-366" rx="81.6404" ry="18"/>
<text text-anchor="middle" x="361.8573" y="-361.8" font-family="Times,serif" font-size="14.00" fill="#000000">exactInputInternal</text>
</g>
<!-- SwapRouter.exactInputInternal&#45;&gt;SwapRouter.getPool -->
<g id="edge10" class="edge">
<title>SwapRouter.exactInputInternal-&gt;SwapRouter.getPool</title>
<path fill="none" stroke="#00ff00" d="M421.2764,-353.5529C431.436,-349.8619 441.4842,-345.1085 450.1175,-339 479.8499,-317.9628 503.0023,-282.3699 516.53,-257.8281"/>
<polygon fill="#00ff00" stroke="#00ff00" points="519.7815,-259.1692 521.4013,-248.6989 513.6057,-255.8738 519.7815,-259.1692"/>
</g>
<!-- SwapRouter.address -->
<g id="node12" class="node">
<title>SwapRouter.address</title>
<ellipse fill="none" stroke="#000000" cx="529.8785" cy="-366" rx="39.9857" ry="18"/>
<text text-anchor="middle" x="529.8785" y="-361.8" font-family="Times,serif" font-size="14.00" fill="#000000">address</text>
</g>
<!-- SwapRouter.exactInputInternal&#45;&gt;SwapRouter.address -->
<g id="edge8" class="edge">
<title>SwapRouter.exactInputInternal-&gt;SwapRouter.address</title>
<path fill="none" stroke="#00ff00" d="M438.0021,-359.2764C452.8091,-359.1768 467.9449,-359.3591 481.5479,-359.8231"/>
<polygon fill="#00ff00" stroke="#00ff00" points="481.4865,-363.3234 491.6205,-360.2329 481.7711,-356.3292 481.4865,-363.3234"/>
</g>
<!-- SwapRouter.exactInputInternal&#45;&gt;SwapRouter.address -->
<g id="edge9" class="edge">
<title>SwapRouter.exactInputInternal-&gt;SwapRouter.address</title>
<path fill="none" stroke="#00ff00" d="M438.0021,-372.7236C452.8091,-372.8232 467.9449,-372.6409 481.5479,-372.1769"/>
<polygon fill="#00ff00" stroke="#00ff00" points="481.7711,-375.6708 491.6205,-371.7671 481.4865,-368.6766 481.7711,-375.6708"/>
</g>
<!-- amountIn.toInt256 -->
<g id="node16" class="node">
<title>amountIn.toInt256</title>
<ellipse fill="none" stroke="#000000" cx="529.8785" cy="-119" rx="43.5233" ry="18"/>
<text text-anchor="middle" x="529.8785" y="-114.8" font-family="Times,serif" font-size="14.00" fill="#000000">toInt256</text>
</g>
<!-- SwapRouter.exactInputInternal&#45;&gt;amountIn.toInt256 -->
<g id="edge11" class="edge">
<title>SwapRouter.exactInputInternal-&gt;amountIn.toInt256</title>
<path fill="none" stroke="#ffa500" d="M427.5685,-355.058C436.0965,-351.1846 443.9822,-345.981 450.1175,-339 499.2201,-283.1289 444.9904,-240.5976 478.1175,-174 483.9572,-162.26 493.1327,-151.2996 502.1469,-142.301"/>
<polygon fill="#ffa500" stroke="#ffa500" points="504.7561,-144.6502 509.6041,-135.2296 499.9395,-139.5708 504.7561,-144.6502"/>
</g>
<!-- SwapRouter.exactInputSingle -->
<g id="node5" class="node">
<title>SwapRouter.exactInputSingle</title>
<ellipse fill="none" stroke="#0000ff" cx="126.7985" cy="-366" rx="76.4439" ry="18"/>
<text text-anchor="middle" x="126.7985" y="-361.8" font-family="Times,serif" font-size="14.00" fill="#000000">exactInputSingle</text>
</g>
<!-- SwapRouter.exactInputSingle&#45;&gt;SwapRouter.exactInputInternal -->
<g id="edge12" class="edge">
<title>SwapRouter.exactInputSingle-&gt;SwapRouter.exactInputInternal</title>
<path fill="none" stroke="#00ff00" d="M203.4403,-366C224.4899,-366 247.5385,-366 269.377,-366"/>
<polygon fill="#00ff00" stroke="#00ff00" points="269.649,-369.5001 279.649,-366 269.649,-362.5001 269.649,-369.5001"/>
</g>
<!-- SwapRouter.exactInput -->
<g id="node6" class="node">
<title>SwapRouter.exactInput</title>
<ellipse fill="none" stroke="#0000ff" cx="126.7985" cy="-420" rx="51.5862" ry="18"/>
<text text-anchor="middle" x="126.7985" y="-415.8" font-family="Times,serif" font-size="14.00" fill="#000000">exactInput</text>
</g>
<!-- SwapRouter.exactInput&#45;&gt;SwapRouter.exactInputInternal -->
<g id="edge13" class="edge">
<title>SwapRouter.exactInput-&gt;SwapRouter.exactInputInternal</title>
<path fill="none" stroke="#00ff00" d="M170.1859,-410.0326C205.1609,-401.9978 254.9418,-390.5617 295.0053,-381.3579"/>
<polygon fill="#00ff00" stroke="#00ff00" points="296.0042,-384.7197 304.9667,-379.0695 294.4369,-377.8974 296.0042,-384.7197"/>
</g>
<!-- SwapRouter.exactInput&#45;&gt;SwapRouter.address -->
<g id="edge14" class="edge">
<title>SwapRouter.exactInput-&gt;SwapRouter.address</title>
<path fill="none" stroke="#00ff00" d="M175.2541,-413.445C238.9478,-409.2613 354.0198,-403.9666 450.1175,-384 460.7475,-381.7913 471.9226,-378.5919 482.4318,-375.3821"/>
<polygon fill="#00ff00" stroke="#00ff00" points="483.7492,-378.6381 492.2641,-372.3335 481.6761,-371.9521 483.7492,-378.6381"/>
</g>
<!-- SwapRouter.exactInput&#45;&gt;SwapRouter.address -->
<g id="edge15" class="edge">
<title>SwapRouter.exactInput-&gt;SwapRouter.address</title>
<path fill="none" stroke="#00ff00" d="M176.0794,-425.7875C239.938,-427.2155 354.4334,-421.8807 450.1175,-402 467.1428,-398.4626 485.5661,-392.3835 500.4128,-385.9856"/>
<polygon fill="#00ff00" stroke="#00ff00" points="501.9797,-389.1175 509.6021,-381.7588 499.0544,-382.758 501.9797,-389.1175"/>
</g>
<!-- SwapRouter.exactOutputInternal&#45;&gt;SwapRouter.getPool -->
<g id="edge18" class="edge">
<title>SwapRouter.exactOutputInternal-&gt;SwapRouter.getPool</title>
<path fill="none" stroke="#00ff00" d="M431.6537,-246.7841C448.5171,-244.0743 466.1674,-241.238 481.7795,-238.7292"/>
<polygon fill="#00ff00" stroke="#00ff00" points="482.3977,-242.1749 491.7158,-237.1325 481.2871,-235.2635 482.3977,-242.1749"/>
</g>
<!-- SwapRouter.exactOutputInternal&#45;&gt;SwapRouter.address -->
<g id="edge16" class="edge">
<title>SwapRouter.exactOutputInternal-&gt;SwapRouter.address</title>
<path fill="none" stroke="#00ff00" d="M434.8968,-268.1466C440.1873,-270.4755 445.3216,-273.0926 450.1175,-276 476.8461,-292.2037 501.0302,-319.3597 515.5884,-339.846"/>
<polygon fill="#00ff00" stroke="#00ff00" points="512.7149,-341.845 521.2175,-348.1661 518.5127,-337.9223 512.7149,-341.845"/>
</g>
<!-- SwapRouter.exactOutputInternal&#45;&gt;SwapRouter.address -->
<g id="edge17" class="edge">
<title>SwapRouter.exactOutputInternal-&gt;SwapRouter.address</title>
<path fill="none" stroke="#00ff00" d="M401.8496,-274.1022C417.6314,-278.9365 435.4557,-285.1116 450.1175,-294 471.1001,-306.7203 490.5146,-326.1901 504.9352,-341.8223"/>
<polygon fill="#00ff00" stroke="#00ff00" points="502.6844,-344.5494 512.0028,-349.591 507.8623,-339.8387 502.6844,-344.5494"/>
</g>
<!-- amountOut.toInt256 -->
<g id="node17" class="node">
<title>amountOut.toInt256</title>
<ellipse fill="none" stroke="#000000" cx="529.8785" cy="-34" rx="43.5233" ry="18"/>
<text text-anchor="middle" x="529.8785" y="-29.8" font-family="Times,serif" font-size="14.00" fill="#000000">toInt256</text>
</g>
<!-- SwapRouter.exactOutputInternal&#45;&gt;amountOut.toInt256 -->
<g id="edge19" class="edge">
<title>SwapRouter.exactOutputInternal-&gt;amountOut.toInt256</title>
<path fill="none" stroke="#ffa500" d="M385.9955,-240.5126C405.7653,-225.0436 433.1509,-200.813 450.1175,-174 471.3856,-140.3891 457.7825,-123.1835 478.1175,-89 484.8735,-77.643 494.3321,-66.704 503.3184,-57.614"/>
<polygon fill="#ffa500" stroke="#ffa500" points="505.96,-59.927 510.6861,-50.4447 501.0783,-54.9102 505.96,-59.927"/>
</g>
<!-- SwapRouter.exactOutputSingle -->
<g id="node8" class="node">
<title>SwapRouter.exactOutputSingle</title>
<ellipse fill="none" stroke="#0000ff" cx="126.7985" cy="-204" rx="82.8245" ry="18"/>
<text text-anchor="middle" x="126.7985" y="-199.8" font-family="Times,serif" font-size="14.00" fill="#000000">exactOutputSingle</text>
</g>
<!-- SwapRouter.exactOutputSingle&#45;&gt;SwapRouter.exactOutputInternal -->
<g id="edge20" class="edge">
<title>SwapRouter.exactOutputSingle-&gt;SwapRouter.exactOutputInternal</title>
<path fill="none" stroke="#00ff00" d="M183.9998,-217.1408C216.9001,-224.699 258.4537,-234.2451 293.1209,-242.2092"/>
<polygon fill="#00ff00" stroke="#00ff00" points="292.641,-245.6901 303.1708,-244.518 294.2084,-238.8678 292.641,-245.6901"/>
</g>
<!-- SwapRouter.exactOutput -->
<g id="node9" class="node">
<title>SwapRouter.exactOutput</title>
<ellipse fill="none" stroke="#0000ff" cx="126.7985" cy="-258" rx="58.4667" ry="18"/>
<text text-anchor="middle" x="126.7985" y="-253.8" font-family="Times,serif" font-size="14.00" fill="#000000">exactOutput</text>
</g>
<!-- SwapRouter.exactOutput&#45;&gt;SwapRouter.exactOutputInternal -->
<g id="edge21" class="edge">
<title>SwapRouter.exactOutput-&gt;SwapRouter.exactOutputInternal</title>
<path fill="none" stroke="#00ff00" d="M185.205,-258C208.8358,-258 236.7784,-258 263.3828,-258"/>
<polygon fill="#00ff00" stroke="#00ff00" points="263.5019,-261.5001 273.5018,-258 263.5018,-254.5001 263.5019,-261.5001"/>
</g>
<!-- key -->
<g id="node18" class="node">
<title>key</title>
<text text-anchor="start" x="111.4345" y="-610.4" font-family="Times,serif" font-size="14.00" fill="#000000">Internal Call</text>
<text text-anchor="start" x="107.5425" y="-590.4" font-family="Times,serif" font-size="14.00" fill="#000000">External Call</text>
<text text-anchor="start" x="85.0039" y="-570.4" font-family="Times,serif" font-size="14.00" fill="#000000">Defined Contract</text>
<text text-anchor="start" x="71.4012" y="-550.4" font-family="Times,serif" font-size="14.00" fill="#000000">Undefined Contract</text>
</g>
<!-- key2 -->
<g id="node19" class="node">
<title>key2</title>
<text text-anchor="start" x="349.6164" y="-610.4" font-family="Times,serif" font-size="14.00" fill="#000000">   </text>
<text text-anchor="start" x="349.6164" y="-590.4" font-family="Times,serif" font-size="14.00" fill="#000000">   </text>
<polygon fill="#d3d3d3" stroke="transparent" points="347.8573,-565 347.8573,-585 375.8573,-585 375.8573,-565 347.8573,-565"/>
<text text-anchor="start" x="349.6164" y="-570.4" font-family="Times,serif" font-size="14.00" fill="#000000">   </text>
<polygon fill="none" stroke="#d3d3d3" points="349.8573,-547 349.8573,-563 373.8573,-563 373.8573,-547 349.8573,-547"/>
</g>
<!-- key&#45;&gt;key2 -->
<g id="edge22" class="edge">
<title>key:e-&gt;key2:w</title>
<path fill="none" stroke="#00ff00" d="M183.7985,-615C253.1532,-615 273.0317,-615 337.5548,-615"/>
<polygon fill="#00ff00" stroke="#00ff00" points="337.8573,-618.5001 347.8573,-615 337.8572,-611.5001 337.8573,-618.5001"/>
</g>
<!-- key&#45;&gt;key2 -->
<g id="edge23" class="edge">
<title>key:e-&gt;key2:w</title>
<path fill="none" stroke="#ffa500" d="M183.7985,-595C253.1532,-595 273.0317,-595 337.5548,-595"/>
<polygon fill="#ffa500" stroke="#ffa500" points="337.8573,-598.5001 347.8573,-595 337.8572,-591.5001 337.8573,-598.5001"/>
</g>
</g>
</svg>