<svg width="100%" height="100%" xmlns="http://www.w3.org/2000/svg" xmlns:xlink="http://www.w3.org/1999/xlink" viewBox="0.00 0.00 285.99 238.00">
<g id="graph0" class="graph" transform="translate(9.701117792762972,230.2012023356379) scale(0.9767085289622274)" style="transform: translate(4px, 99%) scale(0.98);">
<title>G</title>
<polygon fill="#ffffff" stroke="transparent" points="-4,4 -4,-234 281.9857,-234 281.9857,4 -4,4"/>
<g id="clust1" class="cluster">
<title>clusterUniswapV3PoolDeployer</title>
<polygon fill="#d3d3d3" stroke="#d3d3d3" points="35.6792,-8 35.6792,-85 269.9857,-85 269.9857,-8 35.6792,-8"/>
<text text-anchor="middle" x="152.8325" y="-68.4" font-family="Times,serif" font-size="14.00" fill="#000000">UniswapV3PoolDeployer</text>
</g>
<g id="clust2" class="cluster">
<title>cluster_01</title>
<polygon fill="none" stroke="#000000" points="8,-93 8,-222 256.9929,-222 256.9929,-93 8,-93"/>
<text text-anchor="middle" x="132.4964" y="-205.4" font-family="Times,serif" font-size="14.00" fill="#000000">Legend</text>
</g>
<!-- UniswapV3PoolDeployer.deploy -->
<g id="node1" class="node">
<title>UniswapV3PoolDeployer.deploy</title>
<ellipse fill="none" stroke="#ffffff" cx="81" cy="-34" rx="37.1424" ry="18"/>
<text text-anchor="middle" x="81" y="-29.8" font-family="Times,serif" font-size="14.00" fill="#000000">deploy</text>
</g>
<!-- UniswapV3PoolDeployer.address -->
<g id="node2" class="node">
<title>UniswapV3PoolDeployer.address</title>
<ellipse fill="none" stroke="#000000" cx="221.9929" cy="-34" rx="39.9857" ry="18"/>
<text text-anchor="middle" x="221.9929" y="-29.8" font-family="Times,serif" font-size="14.00" fill="#000000">address</text>
</g>
<!-- UniswapV3PoolDeployer.deploy&#45;&gt;UniswapV3PoolDeployer.address -->
<g id="edge1" class="edge">
<title>UniswapV3PoolDeployer.deploy-&gt;UniswapV3PoolDeployer.address</title>
<path fill="none" stroke="#00ff00" d="M118.4133,-34C134.7807,-34 154.225,-34 171.8218,-34"/>
<polygon fill="#00ff00" stroke="#00ff00" points="171.9318,-37.5001 181.9318,-34 171.9317,-30.5001 171.9318,-37.5001"/>
</g>
<!-- key -->
<g id="node3" class="node">
<title>key</title>
<text text-anchor="start" x="65.636" y="-170.4" font-family="Times,serif" font-size="14.00" fill="#000000">Internal Call</text>
<text text-anchor="start" x="61.744" y="-150.4" font-family="Times,serif" font-size="14.00" fill="#000000">External Call</text>
<text text-anchor="start" x="39.2054" y="-130.4" font-family="Times,serif" font-size="14.00" fill="#000000">Defined Contract</text>
<text text-anchor="start" x="25.6027" y="-110.4" font-family="Times,serif" font-size="14.00" fill="#000000">Undefined Contract</text>
</g>
<!-- key2 -->
<g id="node4" class="node">
<title>key2</title>
<text text-anchor="start" x="209.752" y="-170.4" font-family="Times,serif" font-size="14.00" fill="#000000">   </text>
<text text-anchor="start" x="209.752" y="-150.4" font-family="Times,serif" font-size="14.00" fill="#000000">   </text>
<polygon fill="#d3d3d3" stroke="transparent" points="207.9929,-125 207.9929,-145 235.9929,-145 235.9929,-125 207.9929,-125"/>
<text text-anchor="start" x="209.752" y="-130.4" font-family="Times,serif" font-size="14.00" fill="#000000">   </text>
<polygon fill="none" stroke="#d3d3d3" points="209.9929,-107 209.9929,-123 233.9929,-123 233.9929,-107 209.9929,-107"/>
</g>
<!-- key&#45;&gt;key2 -->
<g id="edge2" class="edge">
<title>key:e-&gt;key2:w</title>
<path fill="none" stroke="#00ff00" d="M138,-175C165.4625,-175 174.7418,-175 197.9426,-175"/>
<polygon fill="#00ff00" stroke="#00ff00" points="197.9929,-178.5001 207.9929,-175 197.9928,-171.5001 197.9929,-178.5001"/>
</g>
<!-- key&#45;&gt;key2 -->
<g id="edge3" class="edge">
<title>key:e-&gt;key2:w</title>
<path fill="none" stroke="#ffa500" d="M138,-155C165.4625,-155 174.7418,-155 197.9426,-155"/>
<polygon fill="#ffa500" stroke="#ffa500" points="197.9929,-158.5001 207.9929,-155 197.9928,-151.5001 197.9929,-158.5001"/>
</g>
</g>
</svg>