<svg width="100%" height="100%" xmlns="http://www.w3.org/2000/svg" xmlns:xlink="http://www.w3.org/1999/xlink" viewBox="0.00 0.00 297.78 323.00">
<g id="graph0" class="graph" transform="translate(4,319) scale(1)" style="transform: translate(4px, 99%) scale(0.98);">
<title>G</title>
<polygon fill="#ffffff" stroke="transparent" points="-4,4 -4,-319 293.7846,-319 293.7846,4 -4,4"/>
<g id="clust1" class="cluster">
<title>clusterPosition</title>
<polygon fill="#d3d3d3" stroke="#d3d3d3" points="35.221,-8 35.221,-139 127.779,-139 127.779,-8 35.221,-8"/>
<text text-anchor="middle" x="81.5" y="-122.4" font-family="Times,serif" font-size="14.00" fill="#000000">Position  (lib)</text>
</g>
<g id="clust2" class="cluster">
<title>clusterLiquidityMath</title>
<polygon fill="none" stroke="#d3d3d3" points="174,-93 174,-170 281.7846,-170 281.7846,-93 174,-93"/>
<text text-anchor="middle" x="227.8923" y="-153.4" font-family="Times,serif" font-size="14.00" fill="#000000">LiquidityMath</text>
</g>
<g id="clust3" class="cluster">
<title>clusterFullMath</title>
<polygon fill="none" stroke="#d3d3d3" points="179.348,-8 179.348,-85 276.4366,-85 276.4366,-8 179.348,-8"/>
<text text-anchor="middle" x="227.8923" y="-68.4" font-family="Times,serif" font-size="14.00" fill="#000000">FullMath</text>
</g>
<g id="clust4" class="cluster">
<title>cluster_01</title>
<polygon fill="none" stroke="#000000" points="8,-178 8,-307 262.8923,-307 262.8923,-178 8,-178"/>
<text text-anchor="middle" x="135.4461" y="-290.4" font-family="Times,serif" font-size="14.00" fill="#000000">Legend</text>
</g>
<!-- Position.get -->
<g id="node1" class="node">
<title>Position.get</title>
<ellipse fill="none" stroke="#ffffff" cx="81" cy="-88" rx="27" ry="18"/>
<text text-anchor="middle" x="81" y="-83.8" font-family="Times,serif" font-size="14.00" fill="#000000">get</text>
</g>
<!-- Position.update -->
<g id="node2" class="node">
<title>Position.update</title>
<ellipse fill="none" stroke="#ffffff" cx="81" cy="-34" rx="36.5594" ry="18"/>
<text text-anchor="middle" x="81" y="-29.8" font-family="Times,serif" font-size="14.00" fill="#000000">update</text>
</g>
<!-- LiquidityMath.addDelta -->
<g id="node3" class="node">
<title>LiquidityMath.addDelta</title>
<ellipse fill="none" stroke="#000000" cx="227.8923" cy="-119" rx="45.7848" ry="18"/>
<text text-anchor="middle" x="227.8923" y="-114.8" font-family="Times,serif" font-size="14.00" fill="#000000">addDelta</text>
</g>
<!-- Position.update&#45;&gt;LiquidityMath.addDelta -->
<g id="edge1" class="edge">
<title>Position.update-&gt;LiquidityMath.addDelta</title>
<path fill="none" stroke="#ffa500" d="M112.0191,-44.0335C123.2168,-48.3763 135.6401,-54.0702 146,-61 160.6282,-70.7848 159.9543,-78.3959 174,-89 179.0476,-92.8108 184.6347,-96.46 190.2437,-99.8194"/>
<polygon fill="#ffa500" stroke="#ffa500" points="188.5854,-102.9031 199.0015,-104.8414 192.0676,-96.8306 188.5854,-102.9031"/>
</g>
<!-- FullMath.mulDiv -->
<g id="node4" class="node">
<title>FullMath.mulDiv</title>
<ellipse fill="none" stroke="#000000" cx="227.8923" cy="-34" rx="40.5886" ry="18"/>
<text text-anchor="middle" x="227.8923" y="-29.8" font-family="Times,serif" font-size="14.00" fill="#000000">mulDiv</text>
</g>
<!-- Position.update&#45;&gt;FullMath.mulDiv -->
<g id="edge2" class="edge">
<title>Position.update-&gt;FullMath.mulDiv</title>
<path fill="none" stroke="#ffa500" d="M115.8114,-28.1601C134.7543,-27.1749 158.4904,-26.9896 179.2367,-27.6041"/>
<polygon fill="#ffa500" stroke="#ffa500" points="179.3353,-31.1101 189.4585,-27.984 179.5954,-24.1149 179.3353,-31.1101"/>
</g>
<!-- Position.update&#45;&gt;FullMath.mulDiv -->
<g id="edge3" class="edge">
<title>Position.update-&gt;FullMath.mulDiv</title>
<path fill="none" stroke="#ffa500" d="M115.8114,-39.8399C134.7543,-40.8251 158.4904,-41.0104 179.2367,-40.3959"/>
<polygon fill="#ffa500" stroke="#ffa500" points="179.5954,-43.8851 189.4585,-40.016 179.3353,-36.8899 179.5954,-43.8851"/>
</g>
<!-- key -->
<g id="node5" class="node">
<title>key</title>
<text text-anchor="start" x="65.636" y="-255.4" font-family="Times,serif" font-size="14.00" fill="#000000">Internal Call</text>
<text text-anchor="start" x="61.744" y="-235.4" font-family="Times,serif" font-size="14.00" fill="#000000">External Call</text>
<text text-anchor="start" x="39.2054" y="-215.4" font-family="Times,serif" font-size="14.00" fill="#000000">Defined Contract</text>
<text text-anchor="start" x="25.6027" y="-195.4" font-family="Times,serif" font-size="14.00" fill="#000000">Undefined Contract</text>
</g>
<!-- key2 -->
<g id="node6" class="node">
<title>key2</title>
<text text-anchor="start" x="215.6514" y="-255.4" font-family="Times,serif" font-size="14.00" fill="#000000">   </text>
<text text-anchor="start" x="215.6514" y="-235.4" font-family="Times,serif" font-size="14.00" fill="#000000">   </text>
<polygon fill="#d3d3d3" stroke="transparent" points="213.8923,-210 213.8923,-230 241.8923,-230 241.8923,-210 213.8923,-210"/>
<text text-anchor="start" x="215.6514" y="-215.4" font-family="Times,serif" font-size="14.00" fill="#000000">   </text>
<polygon fill="none" stroke="#d3d3d3" points="215.8923,-192 215.8923,-208 239.8923,-208 239.8923,-192 215.8923,-192"/>
</g>
<!-- key&#45;&gt;key2 -->
<g id="edge4" class="edge">
<title>key:e-&gt;key2:w</title>
<path fill="none" stroke="#00ff00" d="M138,-260C168.0407,-260 178.0151,-260 203.6663,-260"/>
<polygon fill="#00ff00" stroke="#00ff00" points="203.8923,-263.5001 213.8923,-260 203.8922,-256.5001 203.8923,-263.5001"/>
</g>
<!-- key&#45;&gt;key2 -->
<g id="edge5" class="edge">
<title>key:e-&gt;key2:w</title>
<path fill="none" stroke="#ffa500" d="M138,-240C168.0407,-240 178.0151,-240 203.6663,-240"/>
<polygon fill="#ffa500" stroke="#ffa500" points="203.8923,-243.5001 213.8923,-240 203.8922,-236.5001 203.8923,-243.5001"/>
</g>
</g>
</svg>