<svg width="100%" height="100%" xmlns="http://www.w3.org/2000/svg" xmlns:xlink="http://www.w3.org/1999/xlink" viewBox="0.00 0.00 516.15 238.00">
<g id="graph0" class="graph" transform="translate(4,234) scale(1)" style="transform: translate(4px, 99%) scale(0.98);">
<title>G</title>
<polygon fill="#ffffff" stroke="transparent" points="-4,4 -4,-234 512.1542,-234 512.1542,4 -4,4"/>
<g id="clust1" class="cluster">
<title>clusterTickMath</title>
<polygon fill="#d3d3d3" stroke="#d3d3d3" points="8,-8 8,-85 500.1542,-85 500.1542,-8 8,-8"/>
<text text-anchor="middle" x="254.0771" y="-68.4" font-family="Times,serif" font-size="14.00" fill="#000000">TickMath  (lib)</text>
</g>
<g id="clust2" class="cluster">
<title>cluster_01</title>
<polygon fill="none" stroke="#000000" points="30.2066,-93 30.2066,-222 348.6199,-222 348.6199,-93 30.2066,-93"/>
<text text-anchor="middle" x="189.4132" y="-205.4" font-family="Times,serif" font-size="14.00" fill="#000000">Legend</text>
</g>
<!-- TickMath.getSqrtRatioAtTick -->
<g id="node1" class="node">
<title>TickMath.getSqrtRatioAtTick</title>
<ellipse fill="none" stroke="#ffffff" cx="313.6199" cy="-34" rx="87.4137" ry="18"/>
<text text-anchor="middle" x="313.6199" y="-29.8" font-family="Times,serif" font-size="14.00" fill="#000000">getSqrtRatioAtTick</text>
</g>
<!-- TickMath.type -->
<g id="node3" class="node">
<title>TickMath.type</title>
<ellipse fill="none" stroke="#000000" cx="464.4903" cy="-34" rx="27.8286" ry="18"/>
<text text-anchor="middle" x="464.4903" y="-29.8" font-family="Times,serif" font-size="14.00" fill="#000000">type</text>
</g>
<!-- TickMath.getSqrtRatioAtTick&#45;&gt;TickMath.type -->
<g id="edge1" class="edge">
<title>TickMath.getSqrtRatioAtTick-&gt;TickMath.type</title>
<path fill="none" stroke="#00ff00" d="M400.9449,-34C409.9163,-34 418.6575,-34 426.6436,-34"/>
<polygon fill="#00ff00" stroke="#00ff00" points="426.6632,-37.5001 436.6632,-34 426.6631,-30.5001 426.6632,-37.5001"/>
</g>
<!-- TickMath.getTickAtSqrtRatio -->
<g id="node2" class="node">
<title>TickMath.getTickAtSqrtRatio</title>
<ellipse fill="none" stroke="#ffffff" cx="103.2066" cy="-34" rx="87.4137" ry="18"/>
<text text-anchor="middle" x="103.2066" y="-29.8" font-family="Times,serif" font-size="14.00" fill="#000000">getTickAtSqrtRatio</text>
</g>
<!-- TickMath.getTickAtSqrtRatio&#45;&gt;TickMath.getSqrtRatioAtTick -->
<g id="edge2" class="edge">
<title>TickMath.getTickAtSqrtRatio-&gt;TickMath.getSqrtRatioAtTick</title>
<path fill="none" stroke="#00ff00" d="M190.6128,-34C198.9612,-34 207.4636,-34 215.9015,-34"/>
<polygon fill="#00ff00" stroke="#00ff00" points="216.1472,-37.5001 226.1471,-34 216.1471,-30.5001 216.1472,-37.5001"/>
</g>
<!-- key -->
<g id="node4" class="node">
<title>key</title>
<text text-anchor="start" x="87.8426" y="-170.4" font-family="Times,serif" font-size="14.00" fill="#000000">Internal Call</text>
<text text-anchor="start" x="83.9506" y="-150.4" font-family="Times,serif" font-size="14.00" fill="#000000">External Call</text>
<text text-anchor="start" x="61.412" y="-130.4" font-family="Times,serif" font-size="14.00" fill="#000000">Defined Contract</text>
<text text-anchor="start" x="47.8093" y="-110.4" font-family="Times,serif" font-size="14.00" fill="#000000">Undefined Contract</text>
</g>
<!-- key2 -->
<g id="node5" class="node">
<title>key2</title>
<text text-anchor="start" x="301.379" y="-170.4" font-family="Times,serif" font-size="14.00" fill="#000000">   </text>
<text text-anchor="start" x="301.379" y="-150.4" font-family="Times,serif" font-size="14.00" fill="#000000">   </text>
<polygon fill="#d3d3d3" stroke="transparent" points="299.6199,-125 299.6199,-145 327.6199,-145 327.6199,-125 299.6199,-125"/>
<text text-anchor="start" x="301.379" y="-130.4" font-family="Times,serif" font-size="14.00" fill="#000000">   </text>
<polygon fill="none" stroke="#d3d3d3" points="301.6199,-107 301.6199,-123 325.6199,-123 325.6199,-107 301.6199,-107"/>
</g>
<!-- key&#45;&gt;key2 -->
<g id="edge3" class="edge">
<title>key:e-&gt;key2:w</title>
<path fill="none" stroke="#00ff00" d="M160.2066,-175C218.6585,-175 235.7546,-175 289.5216,-175"/>
<polygon fill="#00ff00" stroke="#00ff00" points="289.6199,-178.5001 299.6199,-175 289.6198,-171.5001 289.6199,-178.5001"/>
</g>
<!-- key&#45;&gt;key2 -->
<g id="edge4" class="edge">
<title>key:e-&gt;key2:w</title>
<path fill="none" stroke="#ffa500" d="M160.2066,-155C218.6585,-155 235.7546,-155 289.5216,-155"/>
<polygon fill="#ffa500" stroke="#ffa500" points="289.6199,-158.5001 299.6199,-155 289.6198,-151.5001 289.6199,-158.5001"/>
</g>
</g>
</svg>