<svg width="100%" height="100%" xmlns="http://www.w3.org/2000/svg" xmlns:xlink="http://www.w3.org/1999/xlink" viewBox="0.00 0.00 936.74 696.00">
<g id="graph0" class="graph" transform="translate(4,692) scale(1)" style="transform: translate(4px, 99%) scale(0.98);">
<title>G</title>
<polygon fill="#ffffff" stroke="transparent" points="-4,4 -4,-692 932.7354,-692 932.7354,4 -4,4"/>
<g id="clust1" class="cluster">
<title>clusterSqrtPriceMath</title>
<polygon fill="#d3d3d3" stroke="#d3d3d3" points="8,-232 8,-543 857.9604,-543 857.9604,-232 8,-232"/>
<text text-anchor="middle" x="432.9802" y="-526.4" font-family="Times,serif" font-size="14.00" fill="#000000">SqrtPriceMath  (lib)</text>
</g>
<g id="clust2" class="cluster">
<title>clusterFullMath</title>
<polygon fill="none" stroke="#d3d3d3" points="723.8577,-8 723.8577,-139 920.7354,-139 920.7354,-8 723.8577,-8"/>
<text text-anchor="middle" x="822.2965" y="-122.4" font-family="Times,serif" font-size="14.00" fill="#000000">FullMath</text>
</g>
<g id="clust3" class="cluster">
<title>clusterUnsafeMath</title>
<polygon fill="none" stroke="#d3d3d3" points="741.0249,-147 741.0249,-224 903.5682,-224 903.5682,-147 741.0249,-147"/>
<text text-anchor="middle" x="822.2965" y="-207.4" font-family="Times,serif" font-size="14.00" fill="#000000">UnsafeMath</text>
</g>
<g id="clust4" class="cluster">
<title>cluster_01</title>
<polygon fill="none" stroke="#000000" points="68.2888,-551 68.2888,-680 534.2177,-680 534.2177,-551 68.2888,-551"/>
<text text-anchor="middle" x="301.2532" y="-663.4" font-family="Times,serif" font-size="14.00" fill="#000000">Legend</text>
</g>
<!-- SqrtPriceMath.getNextSqrtPriceFromAmount0RoundingUp -->
<g id="node1" class="node">
<title>SqrtPriceMath.getNextSqrtPriceFromAmount0RoundingUp</title>
<ellipse fill="none" stroke="#ffffff" cx="499.2177" cy="-258" rx="184.6807" ry="18"/>
<text text-anchor="middle" x="499.2177" y="-253.8" font-family="Times,serif" font-size="14.00" fill="#000000">getNextSqrtPriceFromAmount0RoundingUp</text>
</g>
<!-- FullMath.mulDivRoundingUp -->
<g id="node8" class="node">
<title>FullMath.mulDivRoundingUp</title>
<ellipse fill="none" stroke="#000000" cx="822.2965" cy="-88" rx="90.3776" ry="18"/>
<text text-anchor="middle" x="822.2965" y="-83.8" font-family="Times,serif" font-size="14.00" fill="#000000">mulDivRoundingUp</text>
</g>
<!-- SqrtPriceMath.getNextSqrtPriceFromAmount0RoundingUp&#45;&gt;FullMath.mulDivRoundingUp -->
<g id="edge1" class="edge">
<title>SqrtPriceMath.getNextSqrtPriceFromAmount0RoundingUp-&gt;FullMath.mulDivRoundingUp</title>
<path fill="none" stroke="#ffa500" d="M553.0661,-240.7624C595.4138,-229.083 654.0448,-210.2831 695.8577,-177 713.7007,-162.797 707.1954,-149.5712 723.8577,-134 734.7237,-123.8456 747.8094,-114.8745 760.8405,-107.5137"/>
<polygon fill="#ffa500" stroke="#ffa500" points="762.6769,-110.5002 769.8254,-102.6804 759.3607,-104.3356 762.6769,-110.5002"/>
</g>
<!-- SqrtPriceMath.getNextSqrtPriceFromAmount0RoundingUp&#45;&gt;FullMath.mulDivRoundingUp -->
<g id="edge3" class="edge">
<title>SqrtPriceMath.getNextSqrtPriceFromAmount0RoundingUp-&gt;FullMath.mulDivRoundingUp</title>
<path fill="none" stroke="#ffa500" d="M601.1333,-242.9418C633.7128,-232.4568 668.4091,-216.8491 695.8577,-195 713.7007,-180.797 707.1954,-167.5712 723.8577,-152 742.4631,-134.613 767.5763,-120.6952 787.7803,-110.0294"/>
<polygon fill="#ffa500" stroke="#ffa500" points="789.4509,-113.1054 796.6767,-105.357 786.196,-106.9082 789.4509,-113.1054"/>
</g>
<!-- UnsafeMath.divRoundingUp -->
<g id="node10" class="node">
<title>UnsafeMath.divRoundingUp</title>
<ellipse fill="none" stroke="#000000" cx="822.2965" cy="-173" rx="73.044" ry="18"/>
<text text-anchor="middle" x="822.2965" y="-168.8" font-family="Times,serif" font-size="14.00" fill="#000000">divRoundingUp</text>
</g>
<!-- SqrtPriceMath.getNextSqrtPriceFromAmount0RoundingUp&#45;&gt;UnsafeMath.divRoundingUp -->
<g id="edge2" class="edge">
<title>SqrtPriceMath.getNextSqrtPriceFromAmount0RoundingUp-&gt;UnsafeMath.divRoundingUp</title>
<path fill="none" stroke="#ffa500" d="M611.2024,-243.6608C639.1282,-238.8702 668.8136,-232.7247 695.8577,-225 724.5684,-216.7993 755.5946,-204.1012 779.7273,-193.3063"/>
<polygon fill="#ffa500" stroke="#ffa500" points="781.2901,-196.4407 788.9518,-189.123 778.399,-190.0656 781.2901,-196.4407"/>
</g>
<!-- SqrtPriceMath.getNextSqrtPriceFromAmount1RoundingDown -->
<g id="node2" class="node">
<title>SqrtPriceMath.getNextSqrtPriceFromAmount1RoundingDown</title>
<ellipse fill="none" stroke="#ffffff" cx="499.2177" cy="-312" rx="196.7803" ry="18"/>
<text text-anchor="middle" x="499.2177" y="-307.8" font-family="Times,serif" font-size="14.00" fill="#000000">getNextSqrtPriceFromAmount1RoundingDown</text>
</g>
<!-- SqrtPriceMath.type -->
<g id="node7" class="node">
<title>SqrtPriceMath.type</title>
<ellipse fill="none" stroke="#000000" cx="822.2965" cy="-312" rx="27.8286" ry="18"/>
<text text-anchor="middle" x="822.2965" y="-307.8" font-family="Times,serif" font-size="14.00" fill="#000000">type</text>
</g>
<!-- SqrtPriceMath.getNextSqrtPriceFromAmount1RoundingDown&#45;&gt;SqrtPriceMath.type -->
<g id="edge4" class="edge">
<title>SqrtPriceMath.getNextSqrtPriceFromAmount1RoundingDown-&gt;SqrtPriceMath.type</title>
<path fill="none" stroke="#00ff00" d="M681.999,-305.3021C721.151,-305.4954 758.609,-306.2255 784.9568,-307.4926"/>
<polygon fill="#00ff00" stroke="#00ff00" points="785.0152,-311.0008 795.1899,-308.0469 785.3939,-304.0111 785.0152,-311.0008"/>
</g>
<!-- SqrtPriceMath.getNextSqrtPriceFromAmount1RoundingDown&#45;&gt;SqrtPriceMath.type -->
<g id="edge6" class="edge">
<title>SqrtPriceMath.getNextSqrtPriceFromAmount1RoundingDown-&gt;SqrtPriceMath.type</title>
<path fill="none" stroke="#00ff00" d="M681.999,-318.6979C721.151,-318.5046 758.609,-317.7745 784.9568,-316.5074"/>
<polygon fill="#00ff00" stroke="#00ff00" points="785.3939,-319.9889 795.1899,-315.9531 785.0152,-312.9992 785.3939,-319.9889"/>
</g>
<!-- SqrtPriceMath.getNextSqrtPriceFromAmount1RoundingDown&#45;&gt;FullMath.mulDivRoundingUp -->
<g id="edge8" class="edge">
<title>SqrtPriceMath.getNextSqrtPriceFromAmount1RoundingDown-&gt;FullMath.mulDivRoundingUp</title>
<path fill="none" stroke="#ffa500" d="M670.3538,-302.8466C679.5983,-298.0892 688.2128,-292.2122 695.8577,-285 742.6482,-240.8579 686.0651,-195.0538 723.8577,-143 734.8238,-127.8959 751.2758,-116.4134 767.6065,-107.95"/>
<polygon fill="#ffa500" stroke="#ffa500" points="769.173,-111.0802 776.6309,-103.5549 766.108,-104.7869 769.173,-111.0802"/>
</g>
<!-- FullMath.mulDiv -->
<g id="node9" class="node">
<title>FullMath.mulDiv</title>
<ellipse fill="none" stroke="#000000" cx="822.2965" cy="-34" rx="40.5886" ry="18"/>
<text text-anchor="middle" x="822.2965" y="-29.8" font-family="Times,serif" font-size="14.00" fill="#000000">mulDiv</text>
</g>
<!-- SqrtPriceMath.getNextSqrtPriceFromAmount1RoundingDown&#45;&gt;FullMath.mulDiv -->
<g id="edge5" class="edge">
<title>SqrtPriceMath.getNextSqrtPriceFromAmount1RoundingDown-&gt;FullMath.mulDiv</title>
<path fill="none" stroke="#ffa500" d="M671.4019,-303.2196C680.3291,-298.3552 688.5922,-292.354 695.8577,-285 766.3715,-213.6279 658.176,-136.8425 723.8577,-61 735.7863,-47.2262 754.0126,-40.1611 771.5535,-36.6377"/>
<polygon fill="#ffa500" stroke="#ffa500" points="772.4559,-40.036 781.7493,-34.9485 771.3117,-33.1301 772.4559,-40.036"/>
</g>
<!-- SqrtPriceMath.getNextSqrtPriceFromAmount1RoundingDown&#45;&gt;UnsafeMath.divRoundingUp -->
<g id="edge7" class="edge">
<title>SqrtPriceMath.getNextSqrtPriceFromAmount1RoundingDown-&gt;UnsafeMath.divRoundingUp</title>
<path fill="none" stroke="#ffa500" d="M663.9735,-302.1602C675.2989,-297.694 686.0792,-292.0598 695.8577,-285 718.7417,-268.4783 704.4347,-248.4789 723.8577,-228 737.6116,-213.4985 756.0514,-201.816 773.2522,-193.0105"/>
<polygon fill="#ffa500" stroke="#ffa500" points="775.1994,-195.9543 782.643,-188.4149 772.1224,-189.6668 775.1994,-195.9543"/>
</g>
<!-- SqrtPriceMath.getNextSqrtPriceFromInput -->
<g id="node3" class="node">
<title>SqrtPriceMath.getNextSqrtPriceFromInput</title>
<ellipse fill="none" stroke="#ffffff" cx="141.2888" cy="-492" rx="118.6973" ry="18"/>
<text text-anchor="middle" x="141.2888" y="-487.8" font-family="Times,serif" font-size="14.00" fill="#000000">getNextSqrtPriceFromInput</text>
</g>
<!-- SqrtPriceMath.getNextSqrtPriceFromInput&#45;&gt;SqrtPriceMath.getNextSqrtPriceFromAmount0RoundingUp -->
<g id="edge9" class="edge">
<title>SqrtPriceMath.getNextSqrtPriceFromInput-&gt;SqrtPriceMath.getNextSqrtPriceFromAmount0RoundingUp</title>
<path fill="none" stroke="#00ff00" d="M241.0886,-482.1569C250.5586,-477.954 259.3159,-472.3704 266.5776,-465 323.8362,-406.8841 243.158,-340.9045 302.5776,-285 308.5774,-279.3551 315.1715,-274.529 322.1965,-270.4181"/>
<polygon fill="#00ff00" stroke="#00ff00" points="324.1168,-273.3615 331.313,-265.5855 320.8383,-267.1767 324.1168,-273.3615"/>
</g>
<!-- SqrtPriceMath.getNextSqrtPriceFromInput&#45;&gt;SqrtPriceMath.getNextSqrtPriceFromAmount1RoundingDown -->
<g id="edge10" class="edge">
<title>SqrtPriceMath.getNextSqrtPriceFromInput-&gt;SqrtPriceMath.getNextSqrtPriceFromAmount1RoundingDown</title>
<path fill="none" stroke="#00ff00" d="M223.1752,-478.924C237.9208,-475.2921 252.9316,-470.7213 266.5776,-465 346.1965,-431.6187 427.9497,-370.3495 470.1095,-336.3498"/>
<polygon fill="#00ff00" stroke="#00ff00" points="472.4527,-338.9555 478.0012,-329.9297 468.0352,-333.5254 472.4527,-338.9555"/>
</g>
<!-- SqrtPriceMath.getNextSqrtPriceFromOutput -->
<g id="node4" class="node">
<title>SqrtPriceMath.getNextSqrtPriceFromOutput</title>
<ellipse fill="none" stroke="#ffffff" cx="141.2888" cy="-438" rx="125.0779" ry="18"/>
<text text-anchor="middle" x="141.2888" y="-433.8" font-family="Times,serif" font-size="14.00" fill="#000000">getNextSqrtPriceFromOutput</text>
</g>
<!-- SqrtPriceMath.getNextSqrtPriceFromOutput&#45;&gt;SqrtPriceMath.getNextSqrtPriceFromAmount0RoundingUp -->
<g id="edge12" class="edge">
<title>SqrtPriceMath.getNextSqrtPriceFromOutput-&gt;SqrtPriceMath.getNextSqrtPriceFromAmount0RoundingUp</title>
<path fill="none" stroke="#00ff00" d="M241.4266,-427.1547C250.6561,-423.1138 259.2675,-417.8426 266.5776,-411 309.0973,-371.1996 258.5802,-323.1606 302.5776,-285 309.1262,-279.3201 316.2866,-274.4958 323.8754,-270.4138"/>
<polygon fill="#00ff00" stroke="#00ff00" points="325.5309,-273.5002 332.9696,-265.956 322.4498,-267.2147 325.5309,-273.5002"/>
</g>
<!-- SqrtPriceMath.getNextSqrtPriceFromOutput&#45;&gt;SqrtPriceMath.getNextSqrtPriceFromAmount1RoundingDown -->
<g id="edge11" class="edge">
<title>SqrtPriceMath.getNextSqrtPriceFromOutput-&gt;SqrtPriceMath.getNextSqrtPriceFromAmount1RoundingDown</title>
<path fill="none" stroke="#00ff00" d="M218.4225,-423.7914C234.4857,-420.1609 251.2014,-415.8796 266.5776,-411 333.7046,-389.6973 408.0715,-356.2094 454.2352,-334.178"/>
<polygon fill="#00ff00" stroke="#00ff00" points="455.8633,-337.2789 463.3632,-329.7955 452.8335,-330.9686 455.8633,-337.2789"/>
</g>
<!-- SqrtPriceMath.getAmount0Delta -->
<g id="node5" class="node">
<title>SqrtPriceMath.getAmount0Delta</title>
<ellipse fill="none" stroke="#ffffff" cx="141.2888" cy="-348" rx="80.4577" ry="18"/>
<text text-anchor="middle" x="141.2888" y="-343.8" font-family="Times,serif" font-size="14.00" fill="#000000">getAmount0Delta</text>
</g>
<!-- SqrtPriceMath.getAmount0Delta&#45;&gt;SqrtPriceMath.getAmount0Delta -->
<g id="edge18" class="edge">
<title>SqrtPriceMath.getAmount0Delta-&gt;SqrtPriceMath.getAmount0Delta</title>
<path fill="none" stroke="#00ff00" d="M109.9997,-364.6641C103.0466,-374.625 113.4763,-384 141.2888,-384 159.1062,-384 169.7896,-380.1525 173.3392,-374.7682"/>
<polygon fill="#00ff00" stroke="#00ff00" points="176.8194,-374.3728 172.5778,-364.6641 169.8392,-374.8988 176.8194,-374.3728"/>
</g>
<!-- SqrtPriceMath.getAmount0Delta&#45;&gt;SqrtPriceMath.getAmount0Delta -->
<g id="edge19" class="edge">
<title>SqrtPriceMath.getAmount0Delta-&gt;SqrtPriceMath.getAmount0Delta</title>
<path fill="none" stroke="#00ff00" d="M93.9356,-362.6525C57.0161,-380.6816 72.8005,-402 141.2888,-402 203.3563,-402 222.1387,-384.4914 197.636,-367.7897"/>
<polygon fill="#00ff00" stroke="#00ff00" points="199.0613,-364.5731 188.642,-362.6525 195.5895,-370.6515 199.0613,-364.5731"/>
</g>
<!-- SqrtPriceMath.getAmount0Delta&#45;&gt;FullMath.mulDivRoundingUp -->
<g id="edge14" class="edge">
<title>SqrtPriceMath.getAmount0Delta-&gt;FullMath.mulDivRoundingUp</title>
<path fill="none" stroke="#ffa500" d="M220.2219,-344.4367C237.2605,-340.2471 253.9317,-333.0488 266.5776,-321 311.5351,-278.1651 255.3153,-226.2775 302.5776,-186 369.4382,-129.0205 611.0944,-169.0689 695.8577,-146 726.5425,-137.6489 759.1131,-122.5437 783.5112,-109.8419"/>
<polygon fill="#ffa500" stroke="#ffa500" points="785.2432,-112.8852 792.4408,-105.1106 781.9659,-106.6998 785.2432,-112.8852"/>
</g>
<!-- SqrtPriceMath.getAmount0Delta&#45;&gt;FullMath.mulDiv -->
<g id="edge15" class="edge">
<title>SqrtPriceMath.getAmount0Delta-&gt;FullMath.mulDiv</title>
<path fill="none" stroke="#ffa500" d="M220.7309,-344.9557C237.75,-340.7462 254.2846,-333.4087 266.5776,-321 322.4627,-264.5887 246.2984,-202.0182 302.5776,-146 428.9351,-20.2283 522.1394,-107.0833 695.8577,-67 723.2274,-60.6848 753.6981,-52.7592 777.8682,-46.258"/>
<polygon fill="#ffa500" stroke="#ffa500" points="779.0745,-49.5576 787.8137,-43.5679 777.2467,-42.8004 779.0745,-49.5576"/>
</g>
<!-- SqrtPriceMath.getAmount0Delta&#45;&gt;UnsafeMath.divRoundingUp -->
<g id="edge13" class="edge">
<title>SqrtPriceMath.getAmount0Delta-&gt;UnsafeMath.divRoundingUp</title>
<path fill="none" stroke="#ffa500" d="M218.8871,-343.3916C236.075,-339.2541 253.1475,-332.3413 266.5776,-321 299.4926,-293.2043 268.2999,-257.0967 302.5776,-231 306.9397,-227.679 600.8384,-196.3247 744.6846,-181.1503"/>
<polygon fill="#ffa500" stroke="#ffa500" points="745.1983,-184.6157 754.7762,-180.0863 744.4643,-177.6542 745.1983,-184.6157"/>
</g>
<!-- SqrtPriceMath.getAmount1Delta -->
<g id="node6" class="node">
<title>SqrtPriceMath.getAmount1Delta</title>
<ellipse fill="none" stroke="#ffffff" cx="141.2888" cy="-258" rx="80.4577" ry="18"/>
<text text-anchor="middle" x="141.2888" y="-253.8" font-family="Times,serif" font-size="14.00" fill="#000000">getAmount1Delta</text>
</g>
<!-- SqrtPriceMath.getAmount1Delta&#45;&gt;SqrtPriceMath.getAmount1Delta -->
<g id="edge20" class="edge">
<title>SqrtPriceMath.getAmount1Delta-&gt;SqrtPriceMath.getAmount1Delta</title>
<path fill="none" stroke="#00ff00" d="M109.9997,-274.6641C103.0466,-284.625 113.4763,-294 141.2888,-294 159.1062,-294 169.7896,-290.1525 173.3392,-284.7682"/>
<polygon fill="#00ff00" stroke="#00ff00" points="176.8194,-284.3728 172.5778,-274.6641 169.8392,-284.8988 176.8194,-284.3728"/>
</g>
<!-- SqrtPriceMath.getAmount1Delta&#45;&gt;SqrtPriceMath.getAmount1Delta -->
<g id="edge21" class="edge">
<title>SqrtPriceMath.getAmount1Delta-&gt;SqrtPriceMath.getAmount1Delta</title>
<path fill="none" stroke="#00ff00" d="M93.9356,-272.6525C57.0161,-290.6816 72.8005,-312 141.2888,-312 203.3563,-312 222.1387,-294.4914 197.636,-277.7897"/>
<polygon fill="#00ff00" stroke="#00ff00" points="199.0613,-274.5731 188.642,-272.6525 195.5895,-280.6515 199.0613,-274.5731"/>
</g>
<!-- SqrtPriceMath.getAmount1Delta&#45;&gt;FullMath.mulDivRoundingUp -->
<g id="edge16" class="edge">
<title>SqrtPriceMath.getAmount1Delta-&gt;FullMath.mulDivRoundingUp</title>
<path fill="none" stroke="#ffa500" d="M162.7067,-240.5431C192.2306,-217.5033 247.997,-177.5803 302.5776,-158 442.2557,-107.8916 614.7505,-93.214 721.6523,-89.163"/>
<polygon fill="#ffa500" stroke="#ffa500" points="721.92,-92.6558 731.7896,-88.8034 721.6718,-85.6602 721.92,-92.6558"/>
</g>
<!-- SqrtPriceMath.getAmount1Delta&#45;&gt;FullMath.mulDiv -->
<g id="edge17" class="edge">
<title>SqrtPriceMath.getAmount1Delta-&gt;FullMath.mulDiv</title>
<path fill="none" stroke="#ffa500" d="M151.8593,-239.9378C174.3095,-203.4738 230.6339,-121.5212 302.5776,-86 460.2629,-8.1451 677.298,-18.4065 773.2682,-27.9586"/>
<polygon fill="#ffa500" stroke="#ffa500" points="772.9602,-31.4453 783.2679,-28.9956 773.6823,-24.4827 772.9602,-31.4453"/>
</g>
<!-- key -->
<g id="node11" class="node">
<title>key</title>
<text text-anchor="start" x="125.9248" y="-628.4" font-family="Times,serif" font-size="14.00" fill="#000000">Internal Call</text>
<text text-anchor="start" x="122.0328" y="-608.4" font-family="Times,serif" font-size="14.00" fill="#000000">External Call</text>
<text text-anchor="start" x="99.4942" y="-588.4" font-family="Times,serif" font-size="14.00" fill="#000000">Defined Contract</text>
<text text-anchor="start" x="85.8915" y="-568.4" font-family="Times,serif" font-size="14.00" fill="#000000">Undefined Contract</text>
</g>
<!-- key2 -->
<g id="node12" class="node">
<title>key2</title>
<text text-anchor="start" x="486.9768" y="-628.4" font-family="Times,serif" font-size="14.00" fill="#000000">   </text>
<text text-anchor="start" x="486.9768" y="-608.4" font-family="Times,serif" font-size="14.00" fill="#000000">   </text>
<polygon fill="#d3d3d3" stroke="transparent" points="485.2177,-583 485.2177,-603 513.2177,-603 513.2177,-583 485.2177,-583"/>
<text text-anchor="start" x="486.9768" y="-588.4" font-family="Times,serif" font-size="14.00" fill="#000000">   </text>
<polygon fill="none" stroke="#d3d3d3" points="487.2177,-565 487.2177,-581 511.2177,-581 511.2177,-565 487.2177,-565"/>
</g>
<!-- key&#45;&gt;key2 -->
<g id="edge22" class="edge">
<title>key:e-&gt;key2:w</title>
<path fill="none" stroke="#00ff00" d="M198.2888,-633C322.3257,-633 355.8787,-633 474.9673,-633"/>
<polygon fill="#00ff00" stroke="#00ff00" points="475.2177,-636.5001 485.2177,-633 475.2176,-629.5001 475.2177,-636.5001"/>
</g>
<!-- key&#45;&gt;key2 -->
<g id="edge23" class="edge">
<title>key:e-&gt;key2:w</title>
<path fill="none" stroke="#ffa500" d="M198.2888,-613C322.3257,-613 355.8787,-613 474.9673,-613"/>
<polygon fill="#ffa500" stroke="#ffa500" points="475.2177,-616.5001 485.2177,-613 475.2176,-609.5001 475.2177,-616.5001"/>
</g>
</g>
</svg>