<svg width="100%" height="100%" xmlns="http://www.w3.org/2000/svg" xmlns:xlink="http://www.w3.org/1999/xlink" viewBox="0.00 0.00 260.00 346.00">
<g id="graph0" class="graph" transform="translate(4,342) scale(1)" style="transform: translate(4px, 99%) scale(0.98);">
<title>G</title>
<polygon fill="#ffffff" stroke="transparent" points="-4,4 -4,-342 256,-342 256,4 -4,4"/>
<g id="clust1" class="cluster">
<title>clusterSafeCast</title>
<polygon fill="#d3d3d3" stroke="#d3d3d3" points="22.7988,-8 22.7988,-193 139.2012,-193 139.2012,-8 22.7988,-8"/>
<text text-anchor="middle" x="81" y="-176.4" font-family="Times,serif" font-size="14.00" fill="#000000">SafeCast  (lib)</text>
</g>
<g id="clust2" class="cluster">
<title>cluster_01</title>
<polygon fill="none" stroke="#000000" points="8,-201 8,-330 244,-330 244,-201 8,-201"/>
<text text-anchor="middle" x="126" y="-313.4" font-family="Times,serif" font-size="14.00" fill="#000000">Legend</text>
</g>
<!-- SafeCast.toUint160 -->
<g id="node1" class="node">
<title>SafeCast.toUint160</title>
<ellipse fill="none" stroke="#ffffff" cx="81" cy="-142" rx="50.4032" ry="18"/>
<text text-anchor="middle" x="81" y="-137.8" font-family="Times,serif" font-size="14.00" fill="#000000">toUint160</text>
</g>
<!-- SafeCast.toInt128 -->
<g id="node2" class="node">
<title>SafeCast.toInt128</title>
<ellipse fill="none" stroke="#ffffff" cx="81" cy="-88" rx="43.5233" ry="18"/>
<text text-anchor="middle" x="81" y="-83.8" font-family="Times,serif" font-size="14.00" fill="#000000">toInt128</text>
</g>
<!-- SafeCast.toInt256 -->
<g id="node3" class="node">
<title>SafeCast.toInt256</title>
<ellipse fill="none" stroke="#ffffff" cx="81" cy="-34" rx="43.5233" ry="18"/>
<text text-anchor="middle" x="81" y="-29.8" font-family="Times,serif" font-size="14.00" fill="#000000">toInt256</text>
</g>
<!-- key -->
<g id="node4" class="node">
<title>key</title>
<text text-anchor="start" x="65.636" y="-278.4" font-family="Times,serif" font-size="14.00" fill="#000000">Internal Call</text>
<text text-anchor="start" x="61.744" y="-258.4" font-family="Times,serif" font-size="14.00" fill="#000000">External Call</text>
<text text-anchor="start" x="39.2054" y="-238.4" font-family="Times,serif" font-size="14.00" fill="#000000">Defined Contract</text>
<text text-anchor="start" x="25.6027" y="-218.4" font-family="Times,serif" font-size="14.00" fill="#000000">Undefined Contract</text>
</g>
<!-- key2 -->
<g id="node5" class="node">
<title>key2</title>
<text text-anchor="start" x="196.7591" y="-278.4" font-family="Times,serif" font-size="14.00" fill="#000000">   </text>
<text text-anchor="start" x="196.7591" y="-258.4" font-family="Times,serif" font-size="14.00" fill="#000000">   </text>
<polygon fill="#d3d3d3" stroke="transparent" points="195,-233 195,-253 223,-253 223,-233 195,-233"/>
<text text-anchor="start" x="196.7591" y="-238.4" font-family="Times,serif" font-size="14.00" fill="#000000">   </text>
<polygon fill="none" stroke="#d3d3d3" points="197,-215 197,-231 221,-231 221,-215 197,-215"/>
</g>
<!-- key&#45;&gt;key2 -->
<g id="edge1" class="edge">
<title>key:e-&gt;key2:w</title>
<path fill="none" stroke="#00ff00" d="M138,-283C159.5729,-283 167.3678,-283 184.8504,-283"/>
<polygon fill="#00ff00" stroke="#00ff00" points="185,-286.5001 195,-283 185,-279.5001 185,-286.5001"/>
</g>
<!-- key&#45;&gt;key2 -->
<g id="edge2" class="edge">
<title>key:e-&gt;key2:w</title>
<path fill="none" stroke="#ffa500" d="M138,-263C159.5729,-263 167.3678,-263 184.8504,-263"/>
<polygon fill="#ffa500" stroke="#ffa500" points="185,-266.5001 195,-263 185,-259.5001 185,-266.5001"/>
</g>
</g>
</svg>