<svg width="100%" height="100%" xmlns="http://www.w3.org/2000/svg" xmlns:xlink="http://www.w3.org/1999/xlink" viewBox="0.00 0.00 269.00 346.00">
<g id="graph0" class="graph" transform="translate(4,342) scale(1)" style="transform: translate(4px, 99%) scale(0.98);">
<title>G</title>
<polygon fill="#ffffff" stroke="transparent" points="-4,4 -4,-342 265,-342 265,4 -4,4"/>
<g id="clust1" class="cluster">
<title>clusterLowGasSafeMath</title>
<polygon fill="#d3d3d3" stroke="#d3d3d3" points="7,-8 7,-193 155,-193 155,-8 7,-8"/>
<text text-anchor="middle" x="81" y="-176.4" font-family="Times,serif" font-size="14.00" fill="#000000">LowGasSafeMath  (lib)</text>
</g>
<g id="clust2" class="cluster">
<title>cluster_01</title>
<polygon fill="none" stroke="#000000" points="8,-201 8,-330 253,-330 253,-201 8,-201"/>
<text text-anchor="middle" x="130.5" y="-313.4" font-family="Times,serif" font-size="14.00" fill="#000000">Legend</text>
</g>
<!-- LowGasSafeMath.add -->
<g id="node1" class="node">
<title>LowGasSafeMath.add</title>
<ellipse fill="none" stroke="#ffffff" cx="81" cy="-142" rx="27" ry="18"/>
<text text-anchor="middle" x="81" y="-137.8" font-family="Times,serif" font-size="14.00" fill="#000000">add</text>
</g>
<!-- LowGasSafeMath.sub -->
<g id="node2" class="node">
<title>LowGasSafeMath.sub</title>
<ellipse fill="none" stroke="#ffffff" cx="81" cy="-88" rx="27" ry="18"/>
<text text-anchor="middle" x="81" y="-83.8" font-family="Times,serif" font-size="14.00" fill="#000000">sub</text>
</g>
<!-- LowGasSafeMath.mul -->
<g id="node3" class="node">
<title>LowGasSafeMath.mul</title>
<ellipse fill="none" stroke="#ffffff" cx="81" cy="-34" rx="27" ry="18"/>
<text text-anchor="middle" x="81" y="-29.8" font-family="Times,serif" font-size="14.00" fill="#000000">mul</text>
</g>
<!-- key -->
<g id="node4" class="node">
<title>key</title>
<text text-anchor="start" x="65.636" y="-278.4" font-family="Times,serif" font-size="14.00" fill="#000000">Internal Call</text>
<text text-anchor="start" x="61.744" y="-258.4" font-family="Times,serif" font-size="14.00" fill="#000000">External Call</text>
<text text-anchor="start" x="39.2054" y="-238.4" font-family="Times,serif" font-size="14.00" fill="#000000">Defined Contract</text>
<text text-anchor="start" x="25.6027" y="-218.4" font-family="Times,serif" font-size="14.00" fill="#000000">Undefined Contract</text>
</g>
<!-- key2 -->
<g id="node5" class="node">
<title>key2</title>
<text text-anchor="start" x="205.7591" y="-278.4" font-family="Times,serif" font-size="14.00" fill="#000000">   </text>
<text text-anchor="start" x="205.7591" y="-258.4" font-family="Times,serif" font-size="14.00" fill="#000000">   </text>
<polygon fill="#d3d3d3" stroke="transparent" points="204,-233 204,-253 232,-253 232,-233 204,-233"/>
<text text-anchor="start" x="205.7591" y="-238.4" font-family="Times,serif" font-size="14.00" fill="#000000">   </text>
<polygon fill="none" stroke="#d3d3d3" points="206,-215 206,-231 230,-231 230,-215 206,-215"/>
</g>
<!-- key&#45;&gt;key2 -->
<g id="edge1" class="edge">
<title>key:e-&gt;key2:w</title>
<path fill="none" stroke="#00ff00" d="M138,-283C163.6667,-283 172.4896,-283 193.9453,-283"/>
<polygon fill="#00ff00" stroke="#00ff00" points="194,-286.5001 204,-283 194,-279.5001 194,-286.5001"/>
</g>
<!-- key&#45;&gt;key2 -->
<g id="edge2" class="edge">
<title>key:e-&gt;key2:w</title>
<path fill="none" stroke="#ffa500" d="M138,-263C163.6667,-263 172.4896,-263 193.9453,-263"/>
<polygon fill="#ffa500" stroke="#ffa500" points="194,-266.5001 204,-263 194,-259.5001 194,-266.5001"/>
</g>
</g>
</svg>