<svg width="100%" height="100%" xmlns="http://www.w3.org/2000/svg" xmlns:xlink="http://www.w3.org/1999/xlink" viewBox="0.00 0.00 276.54 238.00">
<g id="graph0" class="graph" transform="translate(4,234) scale(1)" style="transform: translate(4px, 99%) scale(0.98);">
<title>G</title>
<polygon fill="#ffffff" stroke="transparent" points="-4,4 -4,-234 272.5433,-234 272.5433,4 -4,4"/>
<g id="clust1" class="cluster">
<title>clusterUnsafeMath</title>
<polygon fill="#d3d3d3" stroke="#d3d3d3" points="8,-8 8,-85 170.5433,-85 170.5433,-8 8,-8"/>
<text text-anchor="middle" x="89.2717" y="-68.4" font-family="Times,serif" font-size="14.00" fill="#000000">UnsafeMath  (lib)</text>
</g>
<g id="clust2" class="cluster">
<title>cluster_01</title>
<polygon fill="none" stroke="#000000" points="16.2717,-93 16.2717,-222 260.5433,-222 260.5433,-93 16.2717,-93"/>
<text text-anchor="middle" x="138.4075" y="-205.4" font-family="Times,serif" font-size="14.00" fill="#000000">Legend</text>
</g>
<!-- UnsafeMath.divRoundingUp -->
<g id="node1" class="node">
<title>UnsafeMath.divRoundingUp</title>
<ellipse fill="none" stroke="#ffffff" cx="89.2717" cy="-34" rx="73.044" ry="18"/>
<text text-anchor="middle" x="89.2717" y="-29.8" font-family="Times,serif" font-size="14.00" fill="#000000">divRoundingUp</text>
</g>
<!-- key -->
<g id="node2" class="node">
<title>key</title>
<text text-anchor="start" x="73.9077" y="-170.4" font-family="Times,serif" font-size="14.00" fill="#000000">Internal Call</text>
<text text-anchor="start" x="70.0157" y="-150.4" font-family="Times,serif" font-size="14.00" fill="#000000">External Call</text>
<text text-anchor="start" x="47.4771" y="-130.4" font-family="Times,serif" font-size="14.00" fill="#000000">Defined Contract</text>
<text text-anchor="start" x="33.8744" y="-110.4" font-family="Times,serif" font-size="14.00" fill="#000000">Undefined Contract</text>
</g>
<!-- key2 -->
<g id="node3" class="node">
<title>key2</title>
<text text-anchor="start" x="213.3024" y="-170.4" font-family="Times,serif" font-size="14.00" fill="#000000">   </text>
<text text-anchor="start" x="213.3024" y="-150.4" font-family="Times,serif" font-size="14.00" fill="#000000">   </text>
<polygon fill="#d3d3d3" stroke="transparent" points="211.5433,-125 211.5433,-145 239.5433,-145 239.5433,-125 211.5433,-125"/>
<text text-anchor="start" x="213.3024" y="-130.4" font-family="Times,serif" font-size="14.00" fill="#000000">   </text>
<polygon fill="none" stroke="#d3d3d3" points="213.5433,-107 213.5433,-123 237.5433,-123 237.5433,-107 213.5433,-107"/>
</g>
<!-- key&#45;&gt;key2 -->
<g id="edge1" class="edge">
<title>key:e-&gt;key2:w</title>
<path fill="none" stroke="#00ff00" d="M146.2717,-175C171.5418,-175 180.3024,-175 201.3161,-175"/>
<polygon fill="#00ff00" stroke="#00ff00" points="201.5433,-178.5001 211.5433,-175 201.5433,-171.5001 201.5433,-178.5001"/>
</g>
<!-- key&#45;&gt;key2 -->
<g id="edge2" class="edge">
<title>key:e-&gt;key2:w</title>
<path fill="none" stroke="#ffa500" d="M146.2717,-155C171.5418,-155 180.3024,-155 201.3161,-155"/>
<polygon fill="#ffa500" stroke="#ffa500" points="201.5433,-158.5001 211.5433,-155 201.5433,-151.5001 201.5433,-158.5001"/>
</g>
</g>
</svg>