<svg width="100%" height="100%" xmlns="http://www.w3.org/2000/svg" xmlns:xlink="http://www.w3.org/1999/xlink" viewBox="0.00 0.00 492.40 539.00">
<g id="graph0" class="graph" transform="translate(4,535) scale(1)" style="transform: translate(4px, 99%) scale(0.98);">
<title>G</title>
<polygon fill="#ffffff" stroke="transparent" points="-4,4 -4,-535 488.4039,-535 488.4039,4 -4,4"/>
<g id="clust1" class="cluster">
<title>clusterSwapMath</title>
<polygon fill="#d3d3d3" stroke="#d3d3d3" points="8,-143 8,-220 189.8263,-220 189.8263,-143 8,-143"/>
<text text-anchor="middle" x="98.9131" y="-203.4" font-family="Times,serif" font-size="14.00" fill="#000000">SwapMath  (lib)</text>
</g>
<g id="clust2" class="cluster">
<title>clusterFullMath</title>
<polygon fill="none" stroke="#d3d3d3" points="244.6763,-255 244.6763,-386 441.5539,-386 441.5539,-255 244.6763,-255"/>
<text text-anchor="middle" x="343.1151" y="-369.4" font-family="Times,serif" font-size="14.00" fill="#000000">FullMath</text>
</g>
<g id="clust3" class="cluster">
<title>clusterSqrtPriceMath</title>
<polygon fill="none" stroke="#d3d3d3" points="209.8263,-8 209.8263,-247 476.4039,-247 476.4039,-8 209.8263,-8"/>
<text text-anchor="middle" x="343.1151" y="-230.4" font-family="Times,serif" font-size="14.00" fill="#000000">SqrtPriceMath</text>
</g>
<g id="clust4" class="cluster">
<title>cluster_01</title>
<polygon fill="none" stroke="#000000" points="25.9131,-394 25.9131,-523 378.1151,-523 378.1151,-394 25.9131,-394"/>
<text text-anchor="middle" x="202.0141" y="-506.4" font-family="Times,serif" font-size="14.00" fill="#000000">Legend</text>
</g>
<!-- SwapMath.computeSwapStep -->
<g id="node1" class="node">
<title>SwapMath.computeSwapStep</title>
<ellipse fill="none" stroke="#ffffff" cx="98.9131" cy="-169" rx="82.8264" ry="18"/>
<text text-anchor="middle" x="98.9131" y="-164.8" font-family="Times,serif" font-size="14.00" fill="#000000">computeSwapStep</text>
</g>
<!-- FullMath.mulDiv -->
<g id="node2" class="node">
<title>FullMath.mulDiv</title>
<ellipse fill="none" stroke="#000000" cx="343.1151" cy="-335" rx="40.5886" ry="18"/>
<text text-anchor="middle" x="343.1151" y="-330.8" font-family="Times,serif" font-size="14.00" fill="#000000">mulDiv</text>
</g>
<!-- SwapMath.computeSwapStep&#45;&gt;FullMath.mulDiv -->
<g id="edge1" class="edge">
<title>SwapMath.computeSwapStep-&gt;FullMath.mulDiv</title>
<path fill="none" stroke="#ffa500" d="M108.0063,-187.289C124.0901,-217.6025 160.5656,-277.8935 209.8263,-308 234.5474,-323.1087 266.1942,-329.9367 292.4471,-332.9511"/>
<polygon fill="#ffa500" stroke="#ffa500" points="292.2903,-336.4527 302.5878,-333.9603 292.9837,-329.4871 292.2903,-336.4527"/>
</g>
<!-- FullMath.mulDivRoundingUp -->
<g id="node3" class="node">
<title>FullMath.mulDivRoundingUp</title>
<ellipse fill="none" stroke="#000000" cx="343.1151" cy="-281" rx="90.3776" ry="18"/>
<text text-anchor="middle" x="343.1151" y="-276.8" font-family="Times,serif" font-size="14.00" fill="#000000">mulDivRoundingUp</text>
</g>
<!-- SwapMath.computeSwapStep&#45;&gt;FullMath.mulDivRoundingUp -->
<g id="edge12" class="edge">
<title>SwapMath.computeSwapStep-&gt;FullMath.mulDivRoundingUp</title>
<path fill="none" stroke="#ffa500" d="M117.7535,-186.8297C138.6381,-205.6055 174.1124,-234.6637 209.8263,-251 225.5133,-258.1756 243.0445,-263.6953 260.1061,-267.9209"/>
<polygon fill="#ffa500" stroke="#ffa500" points="259.5447,-271.3842 270.08,-270.2621 261.1444,-264.5695 259.5447,-271.3842"/>
</g>
<!-- SqrtPriceMath.getAmount0Delta -->
<g id="node4" class="node">
<title>SqrtPriceMath.getAmount0Delta</title>
<ellipse fill="none" stroke="#000000" cx="343.1151" cy="-196" rx="80.4577" ry="18"/>
<text text-anchor="middle" x="343.1151" y="-191.8" font-family="Times,serif" font-size="14.00" fill="#000000">getAmount0Delta</text>
</g>
<!-- SwapMath.computeSwapStep&#45;&gt;SqrtPriceMath.getAmount0Delta -->
<g id="edge2" class="edge">
<title>SwapMath.computeSwapStep-&gt;SqrtPriceMath.getAmount0Delta</title>
<path fill="none" stroke="#ffa500" d="M164.9977,-158.0839C209.542,-159.5456 266.7851,-166.8487 304.1859,-176.3955"/>
<polygon fill="#ffa500" stroke="#ffa500" points="303.6114,-179.8674 314.1816,-179.1447 305.4678,-173.118 303.6114,-179.8674"/>
</g>
<!-- SwapMath.computeSwapStep&#45;&gt;SqrtPriceMath.getAmount0Delta -->
<g id="edge6" class="edge">
<title>SwapMath.computeSwapStep-&gt;SqrtPriceMath.getAmount0Delta</title>
<path fill="none" stroke="#ffa500" d="M181.2483,-171.6821C211.4706,-174.5068 245.3417,-178.3442 274.2583,-182.2431"/>
<polygon fill="#ffa500" stroke="#ffa500" points="273.8813,-185.7242 284.2657,-183.6232 274.8376,-178.7898 273.8813,-185.7242"/>
</g>
<!-- SwapMath.computeSwapStep&#45;&gt;SqrtPriceMath.getAmount0Delta -->
<g id="edge8" class="edge">
<title>SwapMath.computeSwapStep-&gt;SqrtPriceMath.getAmount0Delta</title>
<path fill="none" stroke="#ffa500" d="M158.6517,-181.502C187.0648,-185.4956 221.6365,-189.5317 253.1374,-192.5896"/>
<polygon fill="#ffa500" stroke="#ffa500" points="252.9599,-196.0884 263.2453,-193.5468 253.6199,-189.1196 252.9599,-196.0884"/>
</g>
<!-- SwapMath.computeSwapStep&#45;&gt;SqrtPriceMath.getAmount0Delta -->
<g id="edge11" class="edge">
<title>SwapMath.computeSwapStep-&gt;SqrtPriceMath.getAmount0Delta</title>
<path fill="none" stroke="#ffa500" d="M127.8853,-185.8668C162.4904,-196.1608 221.6666,-204.4078 269.221,-206.6065"/>
<polygon fill="#ffa500" stroke="#ffa500" points="269.3628,-210.1141 279.4869,-206.9912 269.625,-203.119 269.3628,-210.1141"/>
</g>
<!-- SqrtPriceMath.getAmount1Delta -->
<g id="node5" class="node">
<title>SqrtPriceMath.getAmount1Delta</title>
<ellipse fill="none" stroke="#000000" cx="343.1151" cy="-142" rx="80.4577" ry="18"/>
<text text-anchor="middle" x="343.1151" y="-137.8" font-family="Times,serif" font-size="14.00" fill="#000000">getAmount1Delta</text>
</g>
<!-- SwapMath.computeSwapStep&#45;&gt;SqrtPriceMath.getAmount1Delta -->
<g id="edge3" class="edge">
<title>SwapMath.computeSwapStep-&gt;SqrtPriceMath.getAmount1Delta</title>
<path fill="none" stroke="#ffa500" d="M127.8853,-152.1332C162.4904,-141.8392 221.6666,-133.5922 269.221,-131.3935"/>
<polygon fill="#ffa500" stroke="#ffa500" points="269.625,-134.881 279.4869,-131.0088 269.3628,-127.8859 269.625,-134.881"/>
</g>
<!-- SwapMath.computeSwapStep&#45;&gt;SqrtPriceMath.getAmount1Delta -->
<g id="edge5" class="edge">
<title>SwapMath.computeSwapStep-&gt;SqrtPriceMath.getAmount1Delta</title>
<path fill="none" stroke="#ffa500" d="M158.6517,-156.498C187.0648,-152.5044 221.6365,-148.4683 253.1374,-145.4104"/>
<polygon fill="#ffa500" stroke="#ffa500" points="253.6199,-148.8804 263.2453,-144.4532 252.9599,-141.9116 253.6199,-148.8804"/>
</g>
<!-- SwapMath.computeSwapStep&#45;&gt;SqrtPriceMath.getAmount1Delta -->
<g id="edge9" class="edge">
<title>SwapMath.computeSwapStep-&gt;SqrtPriceMath.getAmount1Delta</title>
<path fill="none" stroke="#ffa500" d="M181.2483,-166.3179C211.4706,-163.4932 245.3417,-159.6558 274.2583,-155.7569"/>
<polygon fill="#ffa500" stroke="#ffa500" points="274.8376,-159.2102 284.2657,-154.3768 273.8813,-152.2758 274.8376,-159.2102"/>
</g>
<!-- SwapMath.computeSwapStep&#45;&gt;SqrtPriceMath.getAmount1Delta -->
<g id="edge10" class="edge">
<title>SwapMath.computeSwapStep-&gt;SqrtPriceMath.getAmount1Delta</title>
<path fill="none" stroke="#ffa500" d="M164.9977,-179.9161C209.542,-178.4544 266.7851,-171.1513 304.1859,-161.6045"/>
<polygon fill="#ffa500" stroke="#ffa500" points="305.4678,-164.882 314.1816,-158.8553 303.6114,-158.1326 305.4678,-164.882"/>
</g>
<!-- SqrtPriceMath.getNextSqrtPriceFromInput -->
<g id="node6" class="node">
<title>SqrtPriceMath.getNextSqrtPriceFromInput</title>
<ellipse fill="none" stroke="#000000" cx="343.1151" cy="-88" rx="118.6973" ry="18"/>
<text text-anchor="middle" x="343.1151" y="-83.8" font-family="Times,serif" font-size="14.00" fill="#000000">getNextSqrtPriceFromInput</text>
</g>
<!-- SwapMath.computeSwapStep&#45;&gt;SqrtPriceMath.getNextSqrtPriceFromInput -->
<g id="edge4" class="edge">
<title>SwapMath.computeSwapStep-&gt;SqrtPriceMath.getNextSqrtPriceFromInput</title>
<path fill="none" stroke="#ffa500" d="M128.6346,-151.9621C150.4822,-140.0824 181.2238,-124.6845 209.8263,-115 223.1814,-110.4781 237.5589,-106.5966 251.7551,-103.3028"/>
<polygon fill="#ffa500" stroke="#ffa500" points="252.5438,-106.713 261.5394,-101.1158 251.0167,-99.8816 252.5438,-106.713"/>
</g>
<!-- SqrtPriceMath.getNextSqrtPriceFromOutput -->
<g id="node7" class="node">
<title>SqrtPriceMath.getNextSqrtPriceFromOutput</title>
<ellipse fill="none" stroke="#000000" cx="343.1151" cy="-34" rx="125.0779" ry="18"/>
<text text-anchor="middle" x="343.1151" y="-29.8" font-family="Times,serif" font-size="14.00" fill="#000000">getNextSqrtPriceFromOutput</text>
</g>
<!-- SwapMath.computeSwapStep&#45;&gt;SqrtPriceMath.getNextSqrtPriceFromOutput -->
<g id="edge7" class="edge">
<title>SwapMath.computeSwapStep-&gt;SqrtPriceMath.getNextSqrtPriceFromOutput</title>
<path fill="none" stroke="#ffa500" d="M112.0639,-150.841C130.844,-126.3421 167.7628,-83.2193 209.8263,-61 219.0023,-56.1529 228.9565,-52.1744 239.1512,-48.909"/>
<polygon fill="#ffa500" stroke="#ffa500" points="240.3906,-52.1921 248.9816,-45.9917 238.3991,-45.4814 240.3906,-52.1921"/>
</g>
<!-- key -->
<g id="node8" class="node">
<title>key</title>
<text text-anchor="start" x="83.5491" y="-471.4" font-family="Times,serif" font-size="14.00" fill="#000000">Internal Call</text>
<text text-anchor="start" x="79.6571" y="-451.4" font-family="Times,serif" font-size="14.00" fill="#000000">External Call</text>
<text text-anchor="start" x="57.1185" y="-431.4" font-family="Times,serif" font-size="14.00" fill="#000000">Defined Contract</text>
<text text-anchor="start" x="43.5158" y="-411.4" font-family="Times,serif" font-size="14.00" fill="#000000">Undefined Contract</text>
</g>
<!-- key2 -->
<g id="node9" class="node">
<title>key2</title>
<text text-anchor="start" x="330.8742" y="-471.4" font-family="Times,serif" font-size="14.00" fill="#000000">   </text>
<text text-anchor="start" x="330.8742" y="-451.4" font-family="Times,serif" font-size="14.00" fill="#000000">   </text>
<polygon fill="#d3d3d3" stroke="transparent" points="329.1151,-426 329.1151,-446 357.1151,-446 357.1151,-426 329.1151,-426"/>
<text text-anchor="start" x="330.8742" y="-431.4" font-family="Times,serif" font-size="14.00" fill="#000000">   </text>
<polygon fill="none" stroke="#d3d3d3" points="331.1151,-408 331.1151,-424 355.1151,-424 355.1151,-408 331.1151,-408"/>
</g>
<!-- key&#45;&gt;key2 -->
<g id="edge13" class="edge">
<title>key:e-&gt;key2:w</title>
<path fill="none" stroke="#00ff00" d="M155.9131,-476C229.4338,-476 250.2909,-476 319.0801,-476"/>
<polygon fill="#00ff00" stroke="#00ff00" points="319.1151,-479.5001 329.1151,-476 319.115,-472.5001 319.1151,-479.5001"/>
</g>
<!-- key&#45;&gt;key2 -->
<g id="edge14" class="edge">
<title>key:e-&gt;key2:w</title>
<path fill="none" stroke="#ffa500" d="M155.9131,-456C229.4338,-456 250.2909,-456 319.0801,-456"/>
<polygon fill="#ffa500" stroke="#ffa500" points="319.1151,-459.5001 329.1151,-456 319.115,-452.5001 319.1151,-459.5001"/>
</g>
</g>
</svg>