<svg width="100%" height="100%" xmlns="http://www.w3.org/2000/svg" xmlns:xlink="http://www.w3.org/1999/xlink" viewBox="0.00 0.00 553.43 346.00">
<g id="graph0" class="graph" transform="translate(4,342) scale(1)" style="transform: translate(4px, 99%) scale(0.98);">
<title>G</title>
<polygon fill="#ffffff" stroke="transparent" points="-4,4 -4,-342 549.4338,-342 549.4338,4 -4,4"/>
<g id="clust1" class="cluster">
<title>clusterPoolInitializer</title>
<polygon fill="#d3d3d3" stroke="#d3d3d3" points="8,-8 8,-193 537.4338,-193 537.4338,-8 8,-8"/>
<text text-anchor="middle" x="272.7169" y="-176.4" font-family="Times,serif" font-size="14.00" fill="#000000">PoolInitializer</text>
</g>
<g id="clust2" class="cluster">
<title>cluster_01</title>
<polygon fill="none" stroke="#000000" points="91.843,-201 91.843,-330 474.56,-330 474.56,-201 91.843,-201"/>
<text text-anchor="middle" x="283.2015" y="-313.4" font-family="Times,serif" font-size="14.00" fill="#000000">Legend</text>
</g>
<!-- PoolInitializer.createAndInitializePoolIfNecessary -->
<g id="node1" class="node">
<title>PoolInitializer.createAndInitializePoolIfNecessary</title>
<ellipse fill="none" stroke="#0000ff" cx="164.843" cy="-115" rx="148.6862" ry="18"/>
<text text-anchor="middle" x="164.843" y="-110.8" font-family="Times,serif" font-size="14.00" fill="#000000">createAndInitializePoolIfNecessary</text>
</g>
<!-- PoolInitializer.IUniswapV3Factory -->
<g id="node2" class="node">
<title>PoolInitializer.IUniswapV3Factory</title>
<ellipse fill="none" stroke="#000000" cx="439.56" cy="-34" rx="89.7479" ry="18"/>
<text text-anchor="middle" x="439.56" y="-29.8" font-family="Times,serif" font-size="14.00" fill="#000000">IUniswapV3Factory</text>
</g>
<!-- PoolInitializer.createAndInitializePoolIfNecessary&#45;&gt;PoolInitializer.IUniswapV3Factory -->
<g id="edge1" class="edge">
<title>PoolInitializer.createAndInitializePoolIfNecessary-&gt;PoolInitializer.IUniswapV3Factory</title>
<path fill="none" stroke="#00ff00" d="M206.5666,-97.6885C248.9407,-83.2947 315.4207,-63.3485 366.5411,-49.4862"/>
<polygon fill="#00ff00" stroke="#00ff00" points="367.4738,-52.8598 376.2231,-46.8849 365.6574,-46.0996 367.4738,-52.8598"/>
</g>
<!-- PoolInitializer.createAndInitializePoolIfNecessary&#45;&gt;PoolInitializer.IUniswapV3Factory -->
<g id="edge3" class="edge">
<title>PoolInitializer.createAndInitializePoolIfNecessary-&gt;PoolInitializer.IUniswapV3Factory</title>
<path fill="none" stroke="#00ff00" d="M238.4621,-99.3509C286.9729,-86.1821 349.1122,-67.601 391.391,-53.4818"/>
<polygon fill="#00ff00" stroke="#00ff00" points="392.5418,-56.7875 400.8935,-50.2683 390.2993,-50.1564 392.5418,-56.7875"/>
</g>
<!-- PoolInitializer.address -->
<g id="node3" class="node">
<title>PoolInitializer.address</title>
<ellipse fill="none" stroke="#000000" cx="439.56" cy="-88" rx="39.9857" ry="18"/>
<text text-anchor="middle" x="439.56" y="-83.8" font-family="Times,serif" font-size="14.00" fill="#000000">address</text>
</g>
<!-- PoolInitializer.createAndInitializePoolIfNecessary&#45;&gt;PoolInitializer.address -->
<g id="edge2" class="edge">
<title>PoolInitializer.createAndInitializePoolIfNecessary-&gt;PoolInitializer.address</title>
<path fill="none" stroke="#00ff00" d="M280.5515,-103.6278C319.0209,-99.8469 359.8142,-95.8376 390.4501,-92.8267"/>
<polygon fill="#00ff00" stroke="#00ff00" points="390.8226,-96.307 400.4323,-91.8456 390.1378,-89.3406 390.8226,-96.307"/>
</g>
<!-- PoolInitializer.IUniswapV3Pool -->
<g id="node4" class="node">
<title>PoolInitializer.IUniswapV3Pool</title>
<ellipse fill="none" stroke="#000000" cx="439.56" cy="-142" rx="78.1714" ry="18"/>
<text text-anchor="middle" x="439.56" y="-137.8" font-family="Times,serif" font-size="14.00" fill="#000000">IUniswapV3Pool</text>
</g>
<!-- PoolInitializer.createAndInitializePoolIfNecessary&#45;&gt;PoolInitializer.IUniswapV3Pool -->
<g id="edge4" class="edge">
<title>PoolInitializer.createAndInitializePoolIfNecessary-&gt;PoolInitializer.IUniswapV3Pool</title>
<path fill="none" stroke="#00ff00" d="M313.4579,-116.1467C338.8811,-118.8281 363.7864,-122.0789 384.6589,-125.5537"/>
<polygon fill="#00ff00" stroke="#00ff00" points="384.1143,-129.0115 394.5661,-127.276 385.3133,-122.1149 384.1143,-129.0115"/>
</g>
<!-- PoolInitializer.createAndInitializePoolIfNecessary&#45;&gt;PoolInitializer.IUniswapV3Pool -->
<g id="edge5" class="edge">
<title>PoolInitializer.createAndInitializePoolIfNecessary-&gt;PoolInitializer.IUniswapV3Pool</title>
<path fill="none" stroke="#00ff00" d="M280.5515,-126.3722C306.3413,-128.9069 333.1756,-131.5442 357.2938,-133.9146"/>
<polygon fill="#00ff00" stroke="#00ff00" points="357.1584,-137.4181 367.4528,-134.9131 357.8432,-130.4517 357.1584,-137.4181"/>
</g>
<!-- PoolInitializer.createAndInitializePoolIfNecessary&#45;&gt;PoolInitializer.IUniswapV3Pool -->
<g id="edge6" class="edge">
<title>PoolInitializer.createAndInitializePoolIfNecessary-&gt;PoolInitializer.IUniswapV3Pool</title>
<path fill="none" stroke="#00ff00" d="M221.099,-131.6706C259.3198,-137.9636 310.5929,-143.4933 353.861,-146.1901"/>
<polygon fill="#00ff00" stroke="#00ff00" points="353.9164,-149.6991 364.102,-146.7831 354.321,-142.7108 353.9164,-149.6991"/>
</g>
<!-- key -->
<g id="node5" class="node">
<title>key</title>
<text text-anchor="start" x="149.479" y="-278.4" font-family="Times,serif" font-size="14.00" fill="#000000">Internal Call</text>
<text text-anchor="start" x="145.587" y="-258.4" font-family="Times,serif" font-size="14.00" fill="#000000">External Call</text>
<text text-anchor="start" x="123.0484" y="-238.4" font-family="Times,serif" font-size="14.00" fill="#000000">Defined Contract</text>
<text text-anchor="start" x="109.4457" y="-218.4" font-family="Times,serif" font-size="14.00" fill="#000000">Undefined Contract</text>
</g>
<!-- key2 -->
<g id="node6" class="node">
<title>key2</title>
<text text-anchor="start" x="427.3191" y="-278.4" font-family="Times,serif" font-size="14.00" fill="#000000">   </text>
<text text-anchor="start" x="427.3191" y="-258.4" font-family="Times,serif" font-size="14.00" fill="#000000">   </text>
<polygon fill="#d3d3d3" stroke="transparent" points="425.56,-233 425.56,-253 453.56,-253 453.56,-233 425.56,-233"/>
<text text-anchor="start" x="427.3191" y="-238.4" font-family="Times,serif" font-size="14.00" fill="#000000">   </text>
<polygon fill="none" stroke="#d3d3d3" points="427.56,-215 427.56,-231 451.56,-231 451.56,-215 427.56,-215"/>
</g>
<!-- key&#45;&gt;key2 -->
<g id="edge7" class="edge">
<title>key:e-&gt;key2:w</title>
<path fill="none" stroke="#00ff00" d="M221.843,-283C308.9356,-283 333.1964,-283 415.5029,-283"/>
<polygon fill="#00ff00" stroke="#00ff00" points="415.56,-286.5001 425.56,-283 415.5599,-279.5001 415.56,-286.5001"/>
</g>
<!-- key&#45;&gt;key2 -->
<g id="edge8" class="edge">
<title>key:e-&gt;key2:w</title>
<path fill="none" stroke="#ffa500" d="M221.843,-263C308.9356,-263 333.1964,-263 415.5029,-263"/>
<polygon fill="#ffa500" stroke="#ffa500" points="415.56,-266.5001 425.56,-263 415.5599,-259.5001 415.56,-266.5001"/>
</g>
</g>
</svg>