<svg width="100%" height="100%" xmlns="http://www.w3.org/2000/svg" xmlns:xlink="http://www.w3.org/1999/xlink" viewBox="0.00 0.00 307.85 292.00">
<g id="graph0" class="graph" transform="translate(4,288) scale(1)" style="transform: translate(4px, 99%) scale(0.98);">
<title>G</title>
<polygon fill="#ffffff" stroke="transparent" points="-4,4 -4,-288 303.85,-288 303.85,4 -4,4"/>
<g id="clust1" class="cluster">
<title>clusterPoolAddress</title>
<polygon fill="#d3d3d3" stroke="#d3d3d3" points="8,-8 8,-139 291.85,-139 291.85,-8 8,-8"/>
<text text-anchor="middle" x="149.925" y="-122.4" font-family="Times,serif" font-size="14.00" fill="#000000">PoolAddress  (lib)</text>
</g>
<g id="clust2" class="cluster">
<title>cluster_01</title>
<polygon fill="none" stroke="#000000" points="18.9321,-147 18.9321,-276 278.8571,-276 278.8571,-147 18.9321,-147"/>
<text text-anchor="middle" x="148.8946" y="-259.4" font-family="Times,serif" font-size="14.00" fill="#000000">Legend</text>
</g>
<!-- PoolAddress.getPoolKey -->
<g id="node1" class="node">
<title>PoolAddress.getPoolKey</title>
<ellipse fill="none" stroke="#ffffff" cx="91.9321" cy="-88" rx="56.7619" ry="18"/>
<text text-anchor="middle" x="91.9321" y="-83.8" font-family="Times,serif" font-size="14.00" fill="#000000">getPoolKey</text>
</g>
<!-- PoolAddress.computeAddress -->
<g id="node2" class="node">
<title>PoolAddress.computeAddress</title>
<ellipse fill="none" stroke="#ffffff" cx="91.9321" cy="-34" rx="75.8643" ry="18"/>
<text text-anchor="middle" x="91.9321" y="-29.8" font-family="Times,serif" font-size="14.00" fill="#000000">computeAddress</text>
</g>
<!-- PoolAddress.address -->
<g id="node3" class="node">
<title>PoolAddress.address</title>
<ellipse fill="none" stroke="#000000" cx="243.8571" cy="-34" rx="39.9857" ry="18"/>
<text text-anchor="middle" x="243.8571" y="-29.8" font-family="Times,serif" font-size="14.00" fill="#000000">address</text>
</g>
<!-- PoolAddress.computeAddress&#45;&gt;PoolAddress.address -->
<g id="edge1" class="edge">
<title>PoolAddress.computeAddress-&gt;PoolAddress.address</title>
<path fill="none" stroke="#00ff00" d="M167.8946,-34C176.5531,-34 185.2115,-34 193.42,-34"/>
<polygon fill="#00ff00" stroke="#00ff00" points="193.5429,-37.5001 203.5429,-34 193.5429,-30.5001 193.5429,-37.5001"/>
</g>
<!-- key -->
<g id="node4" class="node">
<title>key</title>
<text text-anchor="start" x="76.5681" y="-224.4" font-family="Times,serif" font-size="14.00" fill="#000000">Internal Call</text>
<text text-anchor="start" x="72.6761" y="-204.4" font-family="Times,serif" font-size="14.00" fill="#000000">External Call</text>
<text text-anchor="start" x="50.1375" y="-184.4" font-family="Times,serif" font-size="14.00" fill="#000000">Defined Contract</text>
<text text-anchor="start" x="36.5348" y="-164.4" font-family="Times,serif" font-size="14.00" fill="#000000">Undefined Contract</text>
</g>
<!-- key2 -->
<g id="node5" class="node">
<title>key2</title>
<text text-anchor="start" x="231.6162" y="-224.4" font-family="Times,serif" font-size="14.00" fill="#000000">   </text>
<text text-anchor="start" x="231.6162" y="-204.4" font-family="Times,serif" font-size="14.00" fill="#000000">   </text>
<polygon fill="#d3d3d3" stroke="transparent" points="229.8571,-179 229.8571,-199 257.8571,-199 257.8571,-179 229.8571,-179"/>
<text text-anchor="start" x="231.6162" y="-184.4" font-family="Times,serif" font-size="14.00" fill="#000000">   </text>
<polygon fill="none" stroke="#d3d3d3" points="231.8571,-161 231.8571,-177 255.8571,-177 255.8571,-161 231.8571,-161"/>
</g>
<!-- key&#45;&gt;key2 -->
<g id="edge2" class="edge">
<title>key:e-&gt;key2:w</title>
<path fill="none" stroke="#00ff00" d="M148.9321,-229C181.2459,-229 191.7858,-229 219.6768,-229"/>
<polygon fill="#00ff00" stroke="#00ff00" points="219.8572,-232.5001 229.8571,-229 219.8571,-225.5001 219.8572,-232.5001"/>
</g>
<!-- key&#45;&gt;key2 -->
<g id="edge3" class="edge">
<title>key:e-&gt;key2:w</title>
<path fill="none" stroke="#ffa500" d="M148.9321,-209C181.2459,-209 191.7858,-209 219.6768,-209"/>
<polygon fill="#ffa500" stroke="#ffa500" points="219.8572,-212.5001 229.8571,-209 219.8571,-205.5001 219.8572,-212.5001"/>
</g>
</g>
</svg>