<svg width="100%" height="100%" xmlns="http://www.w3.org/2000/svg" xmlns:xlink="http://www.w3.org/1999/xlink" viewBox="0.00 0.00 417.33 377.00">
<g id="graph0" class="graph" transform="translate(4,373) scale(1)" style="transform: translate(4px, 99%) scale(0.98);">
<title>G</title>
<polygon fill="#ffffff" stroke="transparent" points="-4,4 -4,-373 413.3346,-373 413.3346,4 -4,4"/>
<g id="clust1" class="cluster">
<title>clusterSqrtPriceMathPartial</title>
<polygon fill="#d3d3d3" stroke="#d3d3d3" points="8,-8 8,-139 184.457,-139 184.457,-8 8,-8"/>
<text text-anchor="middle" x="96.2285" y="-122.4" font-family="Times,serif" font-size="14.00" fill="#000000">SqrtPriceMathPartial  (lib)</text>
</g>
<g id="clust2" class="cluster">
<title>clusterUnsafeMath</title>
<polygon fill="none" stroke="#d3d3d3" points="221.6242,-147 221.6242,-224 384.1675,-224 384.1675,-147 221.6242,-147"/>
<text text-anchor="middle" x="302.8958" y="-207.4" font-family="Times,serif" font-size="14.00" fill="#000000">UnsafeMath</text>
</g>
<g id="clust3" class="cluster">
<title>clusterFullMath</title>
<polygon fill="none" stroke="#d3d3d3" points="204.457,-8 204.457,-139 401.3346,-139 401.3346,-8 204.457,-8"/>
<text text-anchor="middle" x="302.8958" y="-122.4" font-family="Times,serif" font-size="14.00" fill="#000000">FullMath</text>
</g>
<g id="clust4" class="cluster">
<title>cluster_01</title>
<polygon fill="none" stroke="#000000" points="23.2285,-232 23.2285,-361 337.8958,-361 337.8958,-232 23.2285,-232"/>
<text text-anchor="middle" x="180.5622" y="-344.4" font-family="Times,serif" font-size="14.00" fill="#000000">Legend</text>
</g>
<!-- SqrtPriceMathPartial.getAmount0Delta -->
<g id="node1" class="node">
<title>SqrtPriceMathPartial.getAmount0Delta</title>
<ellipse fill="none" stroke="#ffffff" cx="96.2285" cy="-88" rx="80.4577" ry="18"/>
<text text-anchor="middle" x="96.2285" y="-83.8" font-family="Times,serif" font-size="14.00" fill="#000000">getAmount0Delta</text>
</g>
<!-- UnsafeMath.divRoundingUp -->
<g id="node3" class="node">
<title>UnsafeMath.divRoundingUp</title>
<ellipse fill="none" stroke="#000000" cx="302.8958" cy="-173" rx="73.044" ry="18"/>
<text text-anchor="middle" x="302.8958" y="-168.8" font-family="Times,serif" font-size="14.00" fill="#000000">divRoundingUp</text>
</g>
<!-- SqrtPriceMathPartial.getAmount0Delta&#45;&gt;UnsafeMath.divRoundingUp -->
<g id="edge1" class="edge">
<title>SqrtPriceMathPartial.getAmount0Delta-&gt;UnsafeMath.divRoundingUp</title>
<path fill="none" stroke="#ffa500" d="M125.8965,-104.8519C147.2852,-116.5579 177.0875,-131.9731 204.457,-143 216.8703,-148.0012 230.4472,-152.6441 243.444,-156.7103"/>
<polygon fill="#ffa500" stroke="#ffa500" points="242.6545,-160.1287 253.2408,-159.7037 244.7,-153.4342 242.6545,-160.1287"/>
</g>
<!-- FullMath.mulDivRoundingUp -->
<g id="node4" class="node">
<title>FullMath.mulDivRoundingUp</title>
<ellipse fill="none" stroke="#000000" cx="302.8958" cy="-88" rx="90.3776" ry="18"/>
<text text-anchor="middle" x="302.8958" y="-83.8" font-family="Times,serif" font-size="14.00" fill="#000000">mulDivRoundingUp</text>
</g>
<!-- SqrtPriceMathPartial.getAmount0Delta&#45;&gt;FullMath.mulDivRoundingUp -->
<g id="edge2" class="edge">
<title>SqrtPriceMathPartial.getAmount0Delta-&gt;FullMath.mulDivRoundingUp</title>
<path fill="none" stroke="#ffa500" d="M176.7233,-88C185.1138,-88 193.7158,-88 202.2926,-88"/>
<polygon fill="#ffa500" stroke="#ffa500" points="202.3355,-91.5001 212.3355,-88 202.3354,-84.5001 202.3355,-91.5001"/>
</g>
<!-- FullMath.mulDiv -->
<g id="node5" class="node">
<title>FullMath.mulDiv</title>
<ellipse fill="none" stroke="#000000" cx="302.8958" cy="-34" rx="40.5886" ry="18"/>
<text text-anchor="middle" x="302.8958" y="-29.8" font-family="Times,serif" font-size="14.00" fill="#000000">mulDiv</text>
</g>
<!-- SqrtPriceMathPartial.getAmount0Delta&#45;&gt;FullMath.mulDiv -->
<g id="edge3" class="edge">
<title>SqrtPriceMathPartial.getAmount0Delta-&gt;FullMath.mulDiv</title>
<path fill="none" stroke="#ffa500" d="M148.6466,-74.3037C182.3134,-65.5069 225.5934,-54.1983 257.7354,-45.8"/>
<polygon fill="#ffa500" stroke="#ffa500" points="258.9631,-49.0968 267.7534,-43.1823 257.1934,-42.3241 258.9631,-49.0968"/>
</g>
<!-- SqrtPriceMathPartial.getAmount1Delta -->
<g id="node2" class="node">
<title>SqrtPriceMathPartial.getAmount1Delta</title>
<ellipse fill="none" stroke="#ffffff" cx="96.2285" cy="-34" rx="80.4577" ry="18"/>
<text text-anchor="middle" x="96.2285" y="-29.8" font-family="Times,serif" font-size="14.00" fill="#000000">getAmount1Delta</text>
</g>
<!-- SqrtPriceMathPartial.getAmount1Delta&#45;&gt;FullMath.mulDivRoundingUp -->
<g id="edge4" class="edge">
<title>SqrtPriceMathPartial.getAmount1Delta-&gt;FullMath.mulDivRoundingUp</title>
<path fill="none" stroke="#ffa500" d="M148.6466,-47.6963C175.8175,-54.7958 209.2499,-63.5313 238.0355,-71.0527"/>
<polygon fill="#ffa500" stroke="#ffa500" points="237.4456,-74.516 248.0056,-73.6578 239.2153,-67.7434 237.4456,-74.516"/>
</g>
<!-- SqrtPriceMathPartial.getAmount1Delta&#45;&gt;FullMath.mulDiv -->
<g id="edge5" class="edge">
<title>SqrtPriceMathPartial.getAmount1Delta-&gt;FullMath.mulDiv</title>
<path fill="none" stroke="#ffa500" d="M176.7233,-34C202.0807,-34 229.3697,-34 252.06,-34"/>
<polygon fill="#ffa500" stroke="#ffa500" points="252.1383,-37.5001 262.1383,-34 252.1382,-30.5001 252.1383,-37.5001"/>
</g>
<!-- key -->
<g id="node6" class="node">
<title>key</title>
<text text-anchor="start" x="80.8645" y="-309.4" font-family="Times,serif" font-size="14.00" fill="#000000">Internal Call</text>
<text text-anchor="start" x="76.9725" y="-289.4" font-family="Times,serif" font-size="14.00" fill="#000000">External Call</text>
<text text-anchor="start" x="54.4339" y="-269.4" font-family="Times,serif" font-size="14.00" fill="#000000">Defined Contract</text>
<text text-anchor="start" x="40.8312" y="-249.4" font-family="Times,serif" font-size="14.00" fill="#000000">Undefined Contract</text>
</g>
<!-- key2 -->
<g id="node7" class="node">
<title>key2</title>
<text text-anchor="start" x="290.6549" y="-309.4" font-family="Times,serif" font-size="14.00" fill="#000000">   </text>
<text text-anchor="start" x="290.6549" y="-289.4" font-family="Times,serif" font-size="14.00" fill="#000000">   </text>
<polygon fill="#d3d3d3" stroke="transparent" points="288.8958,-264 288.8958,-284 316.8958,-284 316.8958,-264 288.8958,-264"/>
<text text-anchor="start" x="290.6549" y="-269.4" font-family="Times,serif" font-size="14.00" fill="#000000">   </text>
<polygon fill="none" stroke="#d3d3d3" points="290.8958,-246 290.8958,-262 314.8958,-262 314.8958,-246 290.8958,-246"/>
</g>
<!-- key&#45;&gt;key2 -->
<g id="edge6" class="edge">
<title>key:e-&gt;key2:w</title>
<path fill="none" stroke="#00ff00" d="M153.2285,-314C209.9921,-314 226.6775,-314 278.7444,-314"/>
<polygon fill="#00ff00" stroke="#00ff00" points="278.8959,-317.5001 288.8958,-314 278.8958,-310.5001 278.8959,-317.5001"/>
</g>
<!-- key&#45;&gt;key2 -->
<g id="edge7" class="edge">
<title>key:e-&gt;key2:w</title>
<path fill="none" stroke="#ffa500" d="M153.2285,-294C209.9921,-294 226.6775,-294 278.7444,-294"/>
<polygon fill="#ffa500" stroke="#ffa500" points="278.8959,-297.5001 288.8958,-294 278.8958,-290.5001 278.8959,-297.5001"/>
</g>
</g>
</svg>