<svg width="100%" height="100%" xmlns="http://www.w3.org/2000/svg" xmlns:xlink="http://www.w3.org/1999/xlink" viewBox="0.00 0.00 369.01 431.00">
<g id="graph0" class="graph" transform="translate(4,427) scale(1)" style="transform: translate(4px, 99%) scale(0.98);">
<title>G</title>
<polygon fill="#ffffff" stroke="transparent" points="-4,4 -4,-427 365.0074,-427 365.0074,4 -4,4"/>
<g id="clust1" class="cluster">
<title>clusterCallbackValidation</title>
<polygon fill="#d3d3d3" stroke="#d3d3d3" points="8,-147 8,-278 353.0074,-278 353.0074,-147 8,-147"/>
<text text-anchor="middle" x="180.5037" y="-261.4" font-family="Times,serif" font-size="14.00" fill="#000000">CallbackValidation  (lib)</text>
</g>
<g id="clust2" class="cluster">
<title>clusterPoolAddress</title>
<polygon fill="none" stroke="#d3d3d3" points="182.9896,-8 182.9896,-139 350.8539,-139 350.8539,-8 182.9896,-8"/>
<text text-anchor="middle" x="266.9218" y="-122.4" font-family="Times,serif" font-size="14.00" fill="#000000">PoolAddress</text>
</g>
<g id="clust3" class="cluster">
<title>cluster_01</title>
<polygon fill="none" stroke="#000000" points="11.4181,-286 11.4181,-415 301.9218,-415 301.9218,-286 11.4181,-286"/>
<text text-anchor="middle" x="156.6699" y="-398.4" font-family="Times,serif" font-size="14.00" fill="#000000">Legend</text>
</g>
<!-- CallbackValidation.verifyCallback -->
<g id="node1" class="node">
<title>CallbackValidation.verifyCallback</title>
<ellipse fill="none" stroke="#000000" cx="84.4181" cy="-173" rx="68.3362" ry="18"/>
<text text-anchor="middle" x="84.4181" y="-168.8" font-family="Times,serif" font-size="14.00" fill="#000000">verifyCallback</text>
</g>
<!-- CallbackValidation.verifyCallback&#45;&gt;CallbackValidation.verifyCallback -->
<g id="edge1" class="edge">
<title>CallbackValidation.verifyCallback-&gt;CallbackValidation.verifyCallback</title>
<path fill="none" stroke="#00ff00" d="M52.7008,-189.2903C45.0527,-199.3892 55.6251,-209 84.4181,-209 102.8636,-209 113.8313,-205.0557 117.3214,-199.5656"/>
<polygon fill="#00ff00" stroke="#00ff00" points="120.759,-198.8229 116.1353,-189.2903 113.8052,-199.6257 120.759,-198.8229"/>
</g>
<!-- CallbackValidation.IUniswapV3Pool -->
<g id="node2" class="node">
<title>CallbackValidation.IUniswapV3Pool</title>
<ellipse fill="none" stroke="#000000" cx="266.9218" cy="-173" rx="78.1714" ry="18"/>
<text text-anchor="middle" x="266.9218" y="-168.8" font-family="Times,serif" font-size="14.00" fill="#000000">IUniswapV3Pool</text>
</g>
<!-- CallbackValidation.verifyCallback&#45;&gt;CallbackValidation.IUniswapV3Pool -->
<g id="edge3" class="edge">
<title>CallbackValidation.verifyCallback-&gt;CallbackValidation.IUniswapV3Pool</title>
<path fill="none" stroke="#00ff00" d="M152.895,-173C161.2552,-173 169.8879,-173 178.4873,-173"/>
<polygon fill="#00ff00" stroke="#00ff00" points="178.5485,-176.5001 188.5485,-173 178.5484,-169.5001 178.5485,-176.5001"/>
</g>
<!-- CallbackValidation.address -->
<g id="node3" class="node">
<title>CallbackValidation.address</title>
<ellipse fill="none" stroke="#000000" cx="266.9218" cy="-227" rx="39.9857" ry="18"/>
<text text-anchor="middle" x="266.9218" y="-222.8" font-family="Times,serif" font-size="14.00" fill="#000000">address</text>
</g>
<!-- CallbackValidation.verifyCallback&#45;&gt;CallbackValidation.address -->
<g id="edge5" class="edge">
<title>CallbackValidation.verifyCallback-&gt;CallbackValidation.address</title>
<path fill="none" stroke="#00ff00" d="M130.0007,-186.4872C158.7115,-194.9823 195.5491,-205.8819 223.7815,-214.2355"/>
<polygon fill="#00ff00" stroke="#00ff00" points="222.7993,-217.5948 233.3814,-217.0759 224.7854,-210.8824 222.7993,-217.5948"/>
</g>
<!-- PoolAddress.getPoolKey -->
<g id="node4" class="node">
<title>PoolAddress.getPoolKey</title>
<ellipse fill="none" stroke="#000000" cx="266.9218" cy="-88" rx="56.7619" ry="18"/>
<text text-anchor="middle" x="266.9218" y="-83.8" font-family="Times,serif" font-size="14.00" fill="#000000">getPoolKey</text>
</g>
<!-- CallbackValidation.verifyCallback&#45;&gt;PoolAddress.getPoolKey -->
<g id="edge2" class="edge">
<title>CallbackValidation.verifyCallback-&gt;PoolAddress.getPoolKey</title>
<path fill="none" stroke="#ffa500" d="M118.3179,-157.2114C148.6224,-143.0972 193.1186,-122.3734 225.5185,-107.2834"/>
<polygon fill="#ffa500" stroke="#ffa500" points="227.147,-110.3859 234.7344,-102.9911 224.1916,-104.0404 227.147,-110.3859"/>
</g>
<!-- PoolAddress.computeAddress -->
<g id="node5" class="node">
<title>PoolAddress.computeAddress</title>
<ellipse fill="none" stroke="#000000" cx="266.9218" cy="-34" rx="75.8643" ry="18"/>
<text text-anchor="middle" x="266.9218" y="-29.8" font-family="Times,serif" font-size="14.00" fill="#000000">computeAddress</text>
</g>
<!-- CallbackValidation.verifyCallback&#45;&gt;PoolAddress.computeAddress -->
<g id="edge4" class="edge">
<title>CallbackValidation.verifyCallback-&gt;PoolAddress.computeAddress</title>
<path fill="none" stroke="#ffa500" d="M95.5545,-155.1824C111.8353,-130.5486 144.4272,-86.2737 182.9896,-61 189.1508,-56.962 195.9616,-53.4881 202.9601,-50.5088"/>
<polygon fill="#ffa500" stroke="#ffa500" points="204.5393,-53.6493 212.5765,-46.7462 201.9886,-47.1305 204.5393,-53.6493"/>
</g>
<!-- key -->
<g id="node6" class="node">
<title>key</title>
<text text-anchor="start" x="69.0541" y="-363.4" font-family="Times,serif" font-size="14.00" fill="#000000">Internal Call</text>
<text text-anchor="start" x="65.1621" y="-343.4" font-family="Times,serif" font-size="14.00" fill="#000000">External Call</text>
<text text-anchor="start" x="42.6235" y="-323.4" font-family="Times,serif" font-size="14.00" fill="#000000">Defined Contract</text>
<text text-anchor="start" x="29.0208" y="-303.4" font-family="Times,serif" font-size="14.00" fill="#000000">Undefined Contract</text>
</g>
<!-- key2 -->
<g id="node7" class="node">
<title>key2</title>
<text text-anchor="start" x="254.6809" y="-363.4" font-family="Times,serif" font-size="14.00" fill="#000000">   </text>
<text text-anchor="start" x="254.6809" y="-343.4" font-family="Times,serif" font-size="14.00" fill="#000000">   </text>
<polygon fill="#d3d3d3" stroke="transparent" points="252.9218,-318 252.9218,-338 280.9218,-338 280.9218,-318 252.9218,-318"/>
<text text-anchor="start" x="254.6809" y="-323.4" font-family="Times,serif" font-size="14.00" fill="#000000">   </text>
<polygon fill="none" stroke="#d3d3d3" points="254.9218,-300 254.9218,-316 278.9218,-316 278.9218,-300 254.9218,-300"/>
</g>
<!-- key&#45;&gt;key2 -->
<g id="edge6" class="edge">
<title>key:e-&gt;key2:w</title>
<path fill="none" stroke="#00ff00" d="M141.4181,-368C187.394,-368 201.3798,-368 242.7322,-368"/>
<polygon fill="#00ff00" stroke="#00ff00" points="242.9218,-371.5001 252.9218,-368 242.9218,-364.5001 242.9218,-371.5001"/>
</g>
<!-- key&#45;&gt;key2 -->
<g id="edge7" class="edge">
<title>key:e-&gt;key2:w</title>
<path fill="none" stroke="#ffa500" d="M141.4181,-348C187.394,-348 201.3798,-348 242.7322,-348"/>
<polygon fill="#ffa500" stroke="#ffa500" points="242.9218,-351.5001 252.9218,-348 242.9218,-344.5001 242.9218,-351.5001"/>
</g>
</g>
</svg>