<svg width="100%" height="100%" xmlns="http://www.w3.org/2000/svg" xmlns:xlink="http://www.w3.org/1999/xlink" viewBox="0.00 0.00 260.00 238.00">
<g id="graph0" class="graph" transform="translate(4,234) scale(1)" style="transform: translate(4px, 99%) scale(0.98);">
<title>G</title>
<polygon fill="#ffffff" stroke="transparent" points="-4,4 -4,-234 256,-234 256,4 -4,4"/>
<g id="clust1" class="cluster">
<title>clusterPositionKey</title>
<polygon fill="#d3d3d3" stroke="#d3d3d3" points="23.7088,-8 23.7088,-85 139.2912,-85 139.2912,-8 23.7088,-8"/>
<text text-anchor="middle" x="81.5" y="-68.4" font-family="Times,serif" font-size="14.00" fill="#000000">PositionKey  (lib)</text>
</g>
<g id="clust2" class="cluster">
<title>cluster_01</title>
<polygon fill="none" stroke="#000000" points="8,-93 8,-222 244,-222 244,-93 8,-93"/>
<text text-anchor="middle" x="126" y="-205.4" font-family="Times,serif" font-size="14.00" fill="#000000">Legend</text>
</g>
<!-- PositionKey.compute -->
<g id="node1" class="node">
<title>PositionKey.compute</title>
<ellipse fill="none" stroke="#ffffff" cx="81" cy="-34" rx="44.0833" ry="18"/>
<text text-anchor="middle" x="81" y="-29.8" font-family="Times,serif" font-size="14.00" fill="#000000">compute</text>
</g>
<!-- key -->
<g id="node2" class="node">
<title>key</title>
<text text-anchor="start" x="65.636" y="-170.4" font-family="Times,serif" font-size="14.00" fill="#000000">Internal Call</text>
<text text-anchor="start" x="61.744" y="-150.4" font-family="Times,serif" font-size="14.00" fill="#000000">External Call</text>
<text text-anchor="start" x="39.2054" y="-130.4" font-family="Times,serif" font-size="14.00" fill="#000000">Defined Contract</text>
<text text-anchor="start" x="25.6027" y="-110.4" font-family="Times,serif" font-size="14.00" fill="#000000">Undefined Contract</text>
</g>
<!-- key2 -->
<g id="node3" class="node">
<title>key2</title>
<text text-anchor="start" x="196.7591" y="-170.4" font-family="Times,serif" font-size="14.00" fill="#000000">   </text>
<text text-anchor="start" x="196.7591" y="-150.4" font-family="Times,serif" font-size="14.00" fill="#000000">   </text>
<polygon fill="#d3d3d3" stroke="transparent" points="195,-125 195,-145 223,-145 223,-125 195,-125"/>
<text text-anchor="start" x="196.7591" y="-130.4" font-family="Times,serif" font-size="14.00" fill="#000000">   </text>
<polygon fill="none" stroke="#d3d3d3" points="197,-107 197,-123 221,-123 221,-107 197,-107"/>
</g>
<!-- key&#45;&gt;key2 -->
<g id="edge1" class="edge">
<title>key:e-&gt;key2:w</title>
<path fill="none" stroke="#00ff00" d="M138,-175C159.5729,-175 167.3678,-175 184.8504,-175"/>
<polygon fill="#00ff00" stroke="#00ff00" points="185,-178.5001 195,-175 185,-171.5001 185,-178.5001"/>
</g>
<!-- key&#45;&gt;key2 -->
<g id="edge2" class="edge">
<title>key:e-&gt;key2:w</title>
<path fill="none" stroke="#ffa500" d="M138,-155C159.5729,-155 167.3678,-155 184.8504,-155"/>
<polygon fill="#ffa500" stroke="#ffa500" points="185,-158.5001 195,-155 185,-151.5001 185,-158.5001"/>
</g>
</g>
</svg>